<?xml version="1.0" encoding="UTF-8"?>
<svg width="600" height="660" viewBox="-300 -300 600 660" xmlns="http://www.w3.org/2000/svg">
<radialGradient id="a" cx="-80" cy="-80" r="405" gradientTransform="matrix(1 0 0 .99983 0 -.049961)" gradientUnits="userSpaceOnUse">
<stop stop-color="#fff" stop-opacity=".31" offset="0"/>
<stop stop-color="#fff" stop-opacity=".25" offset=".19"/>
<stop stop-color="#6b6b6b" stop-opacity=".125" offset=".6"/>
<stop stop-opacity=".125" offset="1"/>
</radialGradient>
<path d="m-298.5-298.5h597v258.54c0 286.25-298.5 398.46-298.5 398.46s-298.5-112.21-298.5-398.46z" fill="#fff"/>
<path transform="translate(-300 -300)" d="m46.605 69.664c-21.105-0.012599-24.61 61.74-42.184 64.982-0.99757 0.18407-1.9703 0.24673-2.9219 0.22657v108.22c0.95157 0.0202 1.9243-0.0445 2.9219-0.22851 17.573-3.2427 21.078-59.995 42.184-59.982 21.105 0.0126 21.133 60.021 42.238 60.033 21.105 0.0126 21.078-59.995 42.184-59.982 21.105 0.0126 21.131 60.02 42.236 60.033 21.105 0.0126 21.087-60.001 42.186-59.982 21.099 0.019 21.11 60.04 42.209 60.059 21.099 0.0189 21.08-59.995 42.186-59.982 21.105 0.0126 21.131 60.021 42.236 60.033s21.078-59.997 42.184-59.984 21.133 60.02 42.238 60.033c21.105 0.0126 21.078-59.995 42.184-59.982 21.105 0.0126 21.133 60.02 42.238 60.033 21.105 0.0126 21.085-60.001 42.184-59.982 21.099 0.0189 21.112 60.04 42.211 60.059 1.119 9.6e-4 2.1751-0.1178 3.1816-0.33007v-108.22c-1.0065 0.21227-2.0626 0.33108-3.1816 0.33008-21.099-0.019-21.112-65.04-42.211-65.059-21.099-0.019-21.078 64.995-42.184 64.982-21.105-0.0127-21.133-65.021-42.238-65.033-21.105-0.0127-21.078 64.995-42.184 64.982-21.105-0.0127-21.133-65.021-42.238-65.033-21.105-0.0126-21.078 64.995-42.184 64.982-21.105-0.0126-21.131-65.019-42.236-65.031-21.105-0.0127-21.087 65.001-42.186 64.982-21.099-0.019-21.11-65.042-42.209-65.061-21.099-0.019-21.08 64.995-42.186 64.982-21.105-0.0127-21.131-65.019-42.236-65.031-21.105-0.0127-21.078 64.995-42.184 64.982-21.105-0.0126-21.133-65.021-42.238-65.033zm0 240.93c-15.763-9e-3 -21.71 34.428-31.031 53.217 6.2537 22.201 14.368 42.998 23.877 62.445 2.1509-1.5585 4.5147-2.4449 7.1543-2.4434 21.105 0.0126 21.133 60.023 42.238 60.035 21.105 0.0126 21.078-59.997 42.184-59.984 21.105 0.0126 21.131 60.022 42.236 60.035 21.105 0.0126 21.087-60.003 42.186-59.984 21.099 0.019 21.11 60.042 42.209 60.061 21.099 0.0189 21.08-59.997 42.186-59.984 21.105 0.0126 21.131 60.023 42.236 60.035s21.078-59.999 42.184-59.986 21.133 60.022 42.238 60.035c21.105 0.0126 21.078-59.997 42.184-59.984 21.105 0.0126 21.133 60.022 42.238 60.035 21.105 0.0126 21.085-60.003 42.184-59.984 2.6999 2e-3 5.0527 0.99295 7.1504 2.709 9.1711-18.675 17.054-38.6 23.24-59.818-10.416-17.821-14.198-56.095-30.391-56.109-21.099-0.019-21.078 64.995-42.184 64.982-21.105-0.0127-21.133-65.021-42.238-65.033-21.105-0.0127-21.078 64.995-42.184 64.982-21.105-0.0127-21.133-65.021-42.238-65.033-21.105-0.0126-21.078 64.995-42.184 64.982-21.105-0.0126-21.131-65.019-42.236-65.031-21.105-0.0127-21.087 65.001-42.186 64.982-21.099-0.019-21.11-65.042-42.209-65.061-21.099-0.019-21.08 64.995-42.186 64.982-21.105-0.0127-21.131-65.019-42.236-65.031-21.105-0.0127-21.078 64.995-42.184 64.982-21.105-0.0126-21.133-65.021-42.238-65.033zm168.84 236.67c-14.242-0.0128-18.868 29.589-26.857 48.838 60.08 42.983 111.41 62.297 111.41 62.297s51.19-19.262 111.17-62.123c-8.007-19.257-12.653-48.876-26.902-48.885-21.105-0.0126-21.078 64.995-42.184 64.982-21.105-0.0126-21.131-65.019-42.236-65.031-21.105-0.0127-21.087 65.001-42.186 64.982-21.099-0.019-21.11-65.042-42.209-65.061z" fill="#e20909" fill-rule="evenodd" stroke="#000" stroke-width="3"/>
<path transform="matrix(1 0 0 1.0002 0 .04997)" width="100%" height="100%" d="m-298.5-298.5h597v258.5c0 286.2-298.5 398.39-298.5 398.39s-298.5-112.19-298.5-398.39z" fill="url(#a)" stroke-width=".99992"/>
<path d="m-298.5-298.5h597v258.5c0 286.2-298.5 398.39-298.5 398.39s-298.5-112.19-298.5-398.39z" fill="none" stroke="#000" stroke-width="3"/>
</svg>
