<svg fill="none" height="155" viewBox="0 0 155 155" width="155" xmlns="http://www.w3.org/2000/svg"><path clip-rule="evenodd" d="m35.1893 0h84.6217v10.5571h24.632v24.6327h10.557v84.6212h-10.557v24.633h-24.632v10.556h-84.6217v-10.556h-24.6324v-24.633h-10.5569v-84.6212h10.5569v-24.6327h24.6324zm-28.94769 113.57h10.55679zm24.63259 24.632h-.0001v-.001h10.5567zm82.6948-.001v10.558h-72.138 72.138v-10.558h10.557zm35.189-96.7695v72.1385h-10.556 10.556v-72.1386zm-35.189-35.18989v10.55699zm-95.0111 36.94909v68.6193h-.0001v-68.6194h12.3163v-12.3162h12.3163v-12.3166h68.6196v.0001h-68.6195v12.3166h-12.3163v12.3162zm12.3162 80.9353v-12.316h.0001v12.316zm12.3163 12.316v-12.316h.0001v12.316zm80.9356-105.5676v.0001h-12.316v-.0001zm-99.3265 18.558v56.1366h12.3163v12.315h12.3163v12.317h56.1359v-12.317h12.316v-12.315h12.317v-56.1366h-12.317v-12.3163h-12.316v-12.3166h-56.1359v12.3166h-12.3163v12.3163zm32.2005-12.4322h41v6h6 8v8 6h6v41h-6v5.9998 8h-8-6v6h-41v-6h-6-8v-8-5.9998h-6v-41h6v-6-8h8 6zm47 21h7v39h-7v6.9998h-7v7h-39v-7h-7v-6.9998h-7v-39h7v-7h7v-7h39v7h7z" fill="#000" fill-rule="evenodd"/></svg>