<svg height="12" viewBox="0 0 12 12" width="12" xmlns="http://www.w3.org/2000/svg"><path d="m0 0h1v1h-1z"/><path d="m1 1h1v1h-1z"/><path d="m2 2h1v1h-1z"/><path d="m3 3h1v1h-1z"/><path d="m4 4h1v1h-1z"/><path d="m5 5h1v1h-1z"/><path d="m6 6h1v1h-1z"/><path d="m7 7h1v1h-1z"/><path d="m8 8h1v1h-1z"/><path d="m9 9h1v1h-1z"/><path d="m10 10h1v1h-1z"/><path d="m11 11h1v1h-1z"/><path d="m11 0h1v1h-1z"/><path d="m10 1h1v1h-1z"/><path d="m9 2h1v1h-1z"/><path d="m8 3h1v1h-1z"/><path d="m7 4h1v1h-1z"/><path d="m6 5h1v1h-1z"/><path d="m5 6h1v1h-1z"/><path d="m4 7h1v1h-1z"/><path d="m3 8h1v1h-1z"/><path d="m2 9h1v1h-1z"/><path d="m1 10h1v1h-1z"/><path d="m0 11h1v1h-1z"/></svg>