<?xml version="1.0" encoding="UTF-8"?>
<svg enable-background="new 0 277.2 2160 2560" viewBox="0 277.2 2160 2560" xmlns="http://www.w3.org/2000/svg">
<g stroke-width="8">
<path d="m1956.5 1010.7c4.7-34.6 3.4-73 3.4-114.8 0-169.3-191.3-448.5-375-448.5-88 0-173.5 78.3-238 171.5-93.3-19.4-191.8-29.1-293.1-29.1-92.4 0-181.3 8-265.2 24.2-57.4-96.2-137-178.9-228.4-178.9-183.6 0-374.1 291.4-374.1 460.7 0 43-4.6 82.3-3.1 117.6-10.7 18.7-20.7 38.1-30 58.1-11.1 30.4-23.2 59.9-35.4 89.9-1.5 4.6-3 9.3-4.4 14-0.9 4.8-1.7 9.7-3.5 13.8-0.5 1.1-1.1 2.2-1.6 3.2-8.1 28.2-14.9 57.3-20.4 87.5-6.8 55.6-13.3 109.3-16.7 164.1-0.3 10.9-0.5 21.8-0.5 32.9v19.7c0.1 324.4 7.6 603.1 376.8 734.9v260c0 99 84.4 179.2 188.5 179.2s188.5-80.2 188.5-179.2v-188.2c20.1 1.6 40.9 2.9 62 4.1v184.1c0 99 84.4 179.2 188.5 179.2s188.5-80.2 188.5-179.2v-184.1c21.5-1.3 42.6-2.6 63-4.2v188.3c0 99 84.5 179.2 188.5 179.2 82.9 0 153.3-50.9 178.5-121.5 1.5-4.3 2.9-8.6 4.1-13 2.5-14.9 4.5-29.8 5.9-44.6v-260c1.1-0.4 2.2-0.8 3.3-1.2 373.4-134.9 373.5-421.6 373.5-753.4 0.2-184.6-44.9-339.8-123.6-466.3z" fill="#ff73ef" stroke="#c33"/>
<path d="m1186.5 1811.2c-16.5-40.1-65.6-69.5-124.5-69.5s-108.1 29.4-124.5 69.5c-41.3 11.5-71.8 49.1-71.8 94.1 0 54.2 43.9 98.1 98.1 98.1 42.8 0 78.9-27.6 92.2-65.9 2 .1 3.9.5 5.9.5s3.9-.4 5.9-.5c13.4 38.3 49.5 65.9 92.2 65.9 54.2 0 98.1-44 98.1-98.1.1-45.1-30.3-82.5-71.6-94.1z" fill="#8b0065" stroke="#c33"/>
<path d="m1500 983c169 0 307.1 188.1 307.1 360.9 0 226.3-138.1 253-307.1 253s-305-80.3-305-253 136-360.9 305-360.9z" fill="#ff73be" stroke="#f33"/>
<path d="m619 983c169 0 307.1 188.1 307.1 360.9 0 226.3-138.1 253-307.1 253s-305-80.3-305-253 136-360.9 305-360.9z" fill="#ff73be" stroke="#f33"/>
<g fill="#8b006c" stroke="#c33">
<path d="m619.2 1039.9c142.7 0 259.2 158.8 259.2 304.6 0 191-116.6 213.5-259.2 213.5-142.7 0-257.4-67.7-257.4-213.5s114.7-304.6 257.4-304.6z"/>
<path d="m1499.2 1038c138.3 0 251.2 153.8 251.2 295.1 0 185.1-112.9 206.9-251.2 206.9s-249.5-65.6-249.5-206.9 111.3-295.1 249.5-295.1z"/>
</g>
</g>
</svg>

