<?xml version="1.0" encoding="UTF-8"?>
<svg data-name="Layer 1" viewBox="0 0 2160 3840" xmlns="http://www.w3.org/2000/svg">
<path d="m1957 1011.2c4.71-34.6 3.43-72.96 3.43-114.83 0-169.34-191.31-448.48-374.95-448.48-87.97 0-173.53 78.34-237.99 171.5-93.33-19.42-191.8-29.1-293.05-29.1-92.38 0-181.25 8.05-265.23 24.22-57.38-96.23-136.96-178.86-228.4-178.86-183.64 0-374.13 291.38-374.13 460.72 0 42.98-4.61 82.26-3.06 117.57-10.71 18.74-20.73 38.1-30.02 58.09-11.06 30.42-23.18 59.88-35.37 89.9-1.52 4.65-3 9.32-4.45 14.02-0.92 4.77-1.67 9.66-3.46 13.85-0.54 1.08-1.08 2.16-1.6 3.22-8.06 28.17-14.89 57.33-20.41 87.51-6.76 55.6-13.28 109.33-16.66 164.09-0.29 10.87-0.46 21.83-0.46 32.91v19.72c0.15 324.37 7.58 603.11 376.8 734.89v260.03c0 98.97 84.39 179.19 188.5 179.19s188.5-80.22 188.5-179.19v-188.22c20.09 1.59 40.86 2.95 62 4.13v184.1c0 98.97 84.38 179.19 188.5 179.19s188.5-80.22 188.5-179.19v-184.06c21.55-1.26 42.59-2.57 63-4.19v188.26c0 98.97 84.45 179.19 188.5 179.19 82.9 0 153.28-50.86 178.53-121.54 1.53-4.28 2.89-8.62 4.08-13.04 2.54-14.94 4.46-29.8 5.89-44.59v-260.05h0c1.11-0.4 2.2-0.8 3.31-1.2 373.35-134.95 373.49-421.62 373.49-753.4 0-184.62-45.1-339.9-123.8-466.34zm-263.96 1540.1" fill="#fff" fill-opacity=".5" stroke="#2a2a2a" stroke-linecap="round" stroke-miterlimit="8" stroke-width="8" paint-order="fill stroke markers"/>
<path d="m1186.99,1811.69c-16.48-40.1-65.61-69.47-124.49-69.47s-108.07,29.37-124.49,69.47c-41.34,11.51-71.76,49.06-71.76,94.07,0,54.16,43.89,98.12,98.12,98.12,42.85,0,78.89-27.6,92.24-65.87,1.96.07,3.86.46,5.89.46s3.92-.39,5.89-.46c13.41,38.27,49.45,65.87,92.24,65.87,54.16,0,98.12-43.96,98.12-98.12,0-45-30.48-82.49-71.76-94.07Z" fill="#fff" stroke="#2a2a2a" stroke-linecap="round" stroke-miterlimit="8" stroke-width="8" paint-order="fill stroke markers"/>
<path d="m1500.5 983.55c169.04 0 307.14 188.11 307.14 360.88 0 226.33-138.1 253.02-307.14 253.02s-305.02-80.25-305.02-253.02 135.98-360.88 305.02-360.88z" fill="#fff" stroke="#2a2a2a" stroke-linecap="round" stroke-miterlimit="8" stroke-width="8" paint-order="fill stroke markers"/>
<path d="m619.53 983.55c169.04 0 307.14 188.11 307.14 360.88 0 226.33-138.1 253.02-307.14 253.02s-305.02-80.25-305.02-253.02 135.98-360.88 305.02-360.88z" fill="#fff" stroke="#2a2a2a" stroke-linecap="round" stroke-miterlimit="8" stroke-width="8" paint-order="fill stroke markers"/>
<path d="m619.69 1040.4c142.67 0 259.23 158.76 259.23 304.57 0 191.02-116.55 213.54-259.23 213.54s-257.43-67.73-257.43-213.54 114.76-304.57 257.43-304.57z" fill="#fff" fill-opacity=".2" stroke="#2a2a2a" stroke-linecap="round" stroke-miterlimit="8" stroke-width="8" paint-order="fill stroke markers"/>
<path d="m1499.7 1038.5c138.25 0 251.2 153.85 251.2 295.14 0 185.1-112.95 206.93-251.2 206.93s-249.46-65.63-249.46-206.93 111.21-295.14 249.46-295.14z" fill="#fff" fill-opacity=".2" stroke="#2a2a2a" stroke-linecap="round" stroke-miterlimit="8" stroke-width="8" paint-order="fill stroke markers"/>
</svg>