<svg id="svg-content" xmlns="http://www.w3.org/2000/svg" xml:space="preserve" xmlns:xlink="http://www.w3.org/1999/xlink" width="580" height="580" viewBox="0 0 580 580">
<rect width="580" height="580" fill="#ffffff" x="0" y="0" />
<g fill="#000000">
<g  transform="translate(220,40) scale(3.3333333333333)"><circle cx="3" cy="3" r="3"/></g>
<g  transform="translate(300,40) scale(3.3333333333333)"><circle cx="3" cy="3" r="3"/></g>
<g  transform="translate(360,40) scale(3.3333333333333)"><circle cx="3" cy="3" r="3"/></g>
<g  transform="translate(200,60) scale(3.3333333333333)"><circle cx="3" cy="3" r="3"/></g>
<g  transform="translate(220,60) scale(3.3333333333333)"><circle cx="3" cy="3" r="3"/></g>
<g  transform="translate(260,60) scale(3.3333333333333)"><circle cx="3" cy="3" r="3"/></g>
<g  transform="translate(280,60) scale(3.3333333333333)"><circle cx="3" cy="3" r="3"/></g>
<g  transform="translate(340,60) scale(3.3333333333333)"><circle cx="3" cy="3" r="3"/></g>
<g  transform="translate(220,80) scale(3.3333333333333)"><circle cx="3" cy="3" r="3"/></g>
<g  transform="translate(240,80) scale(3.3333333333333)"><circle cx="3" cy="3" r="3"/></g>
<g  transform="translate(260,80) scale(3.3333333333333)"><circle cx="3" cy="3" r="3"/></g>
<g  transform="translate(320,80) scale(3.3333333333333)"><circle cx="3" cy="3" r="3"/></g>
<g  transform="translate(340,80) scale(3.3333333333333)"><circle cx="3" cy="3" r="3"/></g>
<g  transform="translate(200,100) scale(3.3333333333333)"><circle cx="3" cy="3" r="3"/></g>
<g  transform="translate(220,100) scale(3.3333333333333)"><circle cx="3" cy="3" r="3"/></g>
<g  transform="translate(260,100) scale(3.3333333333333)"><circle cx="3" cy="3" r="3"/></g>
<g  transform="translate(300,100) scale(3.3333333333333)"><circle cx="3" cy="3" r="3"/></g>
<g  transform="translate(320,100) scale(3.3333333333333)"><circle cx="3" cy="3" r="3"/></g>
<g  transform="translate(360,100) scale(3.3333333333333)"><circle cx="3" cy="3" r="3"/></g>
<g  transform="translate(240,120) scale(3.3333333333333)"><circle cx="3" cy="3" r="3"/></g>
<g  transform="translate(280,120) scale(3.3333333333333)"><circle cx="3" cy="3" r="3"/></g>
<g  transform="translate(320,120) scale(3.3333333333333)"><circle cx="3" cy="3" r="3"/></g>
<g  transform="translate(360,120) scale(3.3333333333333)"><circle cx="3" cy="3" r="3"/></g>
<g  transform="translate(200,140) scale(3.3333333333333)"><circle cx="3" cy="3" r="3"/></g>
<g  transform="translate(240,140) scale(3.3333333333333)"><circle cx="3" cy="3" r="3"/></g>
<g  transform="translate(320,140) scale(3.3333333333333)"><circle cx="3" cy="3" r="3"/></g>
<g  transform="translate(340,140) scale(3.3333333333333)"><circle cx="3" cy="3" r="3"/></g>
<g  transform="translate(200,160) scale(3.3333333333333)"><circle cx="3" cy="3" r="3"/></g>
<g  transform="translate(240,160) scale(3.3333333333333)"><circle cx="3" cy="3" r="3"/></g>
<g  transform="translate(280,160) scale(3.3333333333333)"><circle cx="3" cy="3" r="3"/></g>
<g  transform="translate(320,160) scale(3.3333333333333)"><circle cx="3" cy="3" r="3"/></g>
<g  transform="translate(360,160) scale(3.3333333333333)"><circle cx="3" cy="3" r="3"/></g>
<g  transform="translate(280,180) scale(3.3333333333333)"><circle cx="3" cy="3" r="3"/></g>
<g  transform="translate(320,180) scale(3.3333333333333)"><circle cx="3" cy="3" r="3"/></g>
<g  transform="translate(40,200) scale(3.3333333333333)"><circle cx="3" cy="3" r="3"/></g>
<g  transform="translate(60,200) scale(3.3333333333333)"><circle cx="3" cy="3" r="3"/></g>
<g  transform="translate(80,200) scale(3.3333333333333)"><circle cx="3" cy="3" r="3"/></g>
<g  transform="translate(100,200) scale(3.3333333333333)"><circle cx="3" cy="3" r="3"/></g>
<g  transform="translate(120,200) scale(3.3333333333333)"><circle cx="3" cy="3" r="3"/></g>
<g  transform="translate(160,200) scale(3.3333333333333)"><circle cx="3" cy="3" r="3"/></g>
<g  transform="translate(180,200) scale(3.3333333333333)"><circle cx="3" cy="3" r="3"/></g>
<g  transform="translate(200,200) scale(3.3333333333333)"><circle cx="3" cy="3" r="3"/></g>
<g  transform="translate(220,200) scale(3.3333333333333)"><circle cx="3" cy="3" r="3"/></g>
<g  transform="translate(240,200) scale(3.3333333333333)"><circle cx="3" cy="3" r="3"/></g>
<g  transform="translate(280,200) scale(3.3333333333333)"><circle cx="3" cy="3" r="3"/></g>
<g  transform="translate(300,200) scale(3.3333333333333)"><circle cx="3" cy="3" r="3"/></g>
<g  transform="translate(320,200) scale(3.3333333333333)"><circle cx="3" cy="3" r="3"/></g>
<g  transform="translate(340,200) scale(3.3333333333333)"><circle cx="3" cy="3" r="3"/></g>
<g  transform="translate(380,200) scale(3.3333333333333)"><circle cx="3" cy="3" r="3"/></g>
<g  transform="translate(420,200) scale(3.3333333333333)"><circle cx="3" cy="3" r="3"/></g>
<g  transform="translate(460,200) scale(3.3333333333333)"><circle cx="3" cy="3" r="3"/></g>
<g  transform="translate(500,200) scale(3.3333333333333)"><circle cx="3" cy="3" r="3"/></g>
<g  transform="translate(40,220) scale(3.3333333333333)"><circle cx="3" cy="3" r="3"/></g>
<g  transform="translate(60,220) scale(3.3333333333333)"><circle cx="3" cy="3" r="3"/></g>
<g  transform="translate(100,220) scale(3.3333333333333)"><circle cx="3" cy="3" r="3"/></g>
<g  transform="translate(140,220) scale(3.3333333333333)"><circle cx="3" cy="3" r="3"/></g>
<g  transform="translate(180,220) scale(3.3333333333333)"><circle cx="3" cy="3" r="3"/></g>
<g  transform="translate(220,220) scale(3.3333333333333)"><circle cx="3" cy="3" r="3"/></g>
<g  transform="translate(300,220) scale(3.3333333333333)"><circle cx="3" cy="3" r="3"/></g>
<g  transform="translate(360,220) scale(3.3333333333333)"><circle cx="3" cy="3" r="3"/></g>
<g  transform="translate(420,220) scale(3.3333333333333)"><circle cx="3" cy="3" r="3"/></g>
<g  transform="translate(500,220) scale(3.3333333333333)"><circle cx="3" cy="3" r="3"/></g>
<g  transform="translate(80,240) scale(3.3333333333333)"><circle cx="3" cy="3" r="3"/></g>
<g  transform="translate(140,240) scale(3.3333333333333)"><circle cx="3" cy="3" r="3"/></g>
<g  transform="translate(160,240) scale(3.3333333333333)"><circle cx="3" cy="3" r="3"/></g>
<g  transform="translate(200,240) scale(3.3333333333333)"><circle cx="3" cy="3" r="3"/></g>
<g  transform="translate(220,240) scale(3.3333333333333)"><circle cx="3" cy="3" r="3"/></g>
<g  transform="translate(260,240) scale(3.3333333333333)"><circle cx="3" cy="3" r="3"/></g>
<g  transform="translate(280,240) scale(3.3333333333333)"><circle cx="3" cy="3" r="3"/></g>
<g  transform="translate(320,240) scale(3.3333333333333)"><circle cx="3" cy="3" r="3"/></g>
<g  transform="translate(340,240) scale(3.3333333333333)"><circle cx="3" cy="3" r="3"/></g>
<g  transform="translate(360,240) scale(3.3333333333333)"><circle cx="3" cy="3" r="3"/></g>
<g  transform="translate(440,240) scale(3.3333333333333)"><circle cx="3" cy="3" r="3"/></g>
<g  transform="translate(460,240) scale(3.3333333333333)"><circle cx="3" cy="3" r="3"/></g>
<g  transform="translate(500,240) scale(3.3333333333333)"><circle cx="3" cy="3" r="3"/></g>
<g  transform="translate(520,240) scale(3.3333333333333)"><circle cx="3" cy="3" r="3"/></g>
<g  transform="translate(40,260) scale(3.3333333333333)"><circle cx="3" cy="3" r="3"/></g>
<g  transform="translate(120,260) scale(3.3333333333333)"><circle cx="3" cy="3" r="3"/></g>
<g  transform="translate(220,260) scale(3.3333333333333)"><circle cx="3" cy="3" r="3"/></g>
<g  transform="translate(240,260) scale(3.3333333333333)"><circle cx="3" cy="3" r="3"/></g>
<g  transform="translate(260,260) scale(3.3333333333333)"><circle cx="3" cy="3" r="3"/></g>
<g  transform="translate(320,260) scale(3.3333333333333)"><circle cx="3" cy="3" r="3"/></g>
<g  transform="translate(360,260) scale(3.3333333333333)"><circle cx="3" cy="3" r="3"/></g>
<g  transform="translate(380,260) scale(3.3333333333333)"><circle cx="3" cy="3" r="3"/></g>
<g  transform="translate(400,260) scale(3.3333333333333)"><circle cx="3" cy="3" r="3"/></g>
<g  transform="translate(420,260) scale(3.3333333333333)"><circle cx="3" cy="3" r="3"/></g>
<g  transform="translate(520,260) scale(3.3333333333333)"><circle cx="3" cy="3" r="3"/></g>
<g  transform="translate(60,280) scale(3.3333333333333)"><circle cx="3" cy="3" r="3"/></g>
<g  transform="translate(80,280) scale(3.3333333333333)"><circle cx="3" cy="3" r="3"/></g>
<g  transform="translate(100,280) scale(3.3333333333333)"><circle cx="3" cy="3" r="3"/></g>
<g  transform="translate(120,280) scale(3.3333333333333)"><circle cx="3" cy="3" r="3"/></g>
<g  transform="translate(160,280) scale(3.3333333333333)"><circle cx="3" cy="3" r="3"/></g>
<g  transform="translate(220,280) scale(3.3333333333333)"><circle cx="3" cy="3" r="3"/></g>
<g  transform="translate(260,280) scale(3.3333333333333)"><circle cx="3" cy="3" r="3"/></g>
<g  transform="translate(300,280) scale(3.3333333333333)"><circle cx="3" cy="3" r="3"/></g>
<g  transform="translate(380,280) scale(3.3333333333333)"><circle cx="3" cy="3" r="3"/></g>
<g  transform="translate(400,280) scale(3.3333333333333)"><circle cx="3" cy="3" r="3"/></g>
<g  transform="translate(440,280) scale(3.3333333333333)"><circle cx="3" cy="3" r="3"/></g>
<g  transform="translate(480,280) scale(3.3333333333333)"><circle cx="3" cy="3" r="3"/></g>
<g  transform="translate(500,280) scale(3.3333333333333)"><circle cx="3" cy="3" r="3"/></g>
<g  transform="translate(520,280) scale(3.3333333333333)"><circle cx="3" cy="3" r="3"/></g>
<g  transform="translate(40,300) scale(3.3333333333333)"><circle cx="3" cy="3" r="3"/></g>
<g  transform="translate(60,300) scale(3.3333333333333)"><circle cx="3" cy="3" r="3"/></g>
<g  transform="translate(80,300) scale(3.3333333333333)"><circle cx="3" cy="3" r="3"/></g>
<g  transform="translate(100,300) scale(3.3333333333333)"><circle cx="3" cy="3" r="3"/></g>
<g  transform="translate(140,300) scale(3.3333333333333)"><circle cx="3" cy="3" r="3"/></g>
<g  transform="translate(180,300) scale(3.3333333333333)"><circle cx="3" cy="3" r="3"/></g>
<g  transform="translate(240,300) scale(3.3333333333333)"><circle cx="3" cy="3" r="3"/></g>
<g  transform="translate(280,300) scale(3.3333333333333)"><circle cx="3" cy="3" r="3"/></g>
<g  transform="translate(300,300) scale(3.3333333333333)"><circle cx="3" cy="3" r="3"/></g>
<g  transform="translate(360,300) scale(3.3333333333333)"><circle cx="3" cy="3" r="3"/></g>
<g  transform="translate(420,300) scale(3.3333333333333)"><circle cx="3" cy="3" r="3"/></g>
<g  transform="translate(460,300) scale(3.3333333333333)"><circle cx="3" cy="3" r="3"/></g>
<g  transform="translate(500,300) scale(3.3333333333333)"><circle cx="3" cy="3" r="3"/></g>
<g  transform="translate(40,320) scale(3.3333333333333)"><circle cx="3" cy="3" r="3"/></g>
<g  transform="translate(120,320) scale(3.3333333333333)"><circle cx="3" cy="3" r="3"/></g>
<g  transform="translate(160,320) scale(3.3333333333333)"><circle cx="3" cy="3" r="3"/></g>
<g  transform="translate(300,320) scale(3.3333333333333)"><circle cx="3" cy="3" r="3"/></g>
<g  transform="translate(320,320) scale(3.3333333333333)"><circle cx="3" cy="3" r="3"/></g>
<g  transform="translate(340,320) scale(3.3333333333333)"><circle cx="3" cy="3" r="3"/></g>
<g  transform="translate(380,320) scale(3.3333333333333)"><circle cx="3" cy="3" r="3"/></g>
<g  transform="translate(420,320) scale(3.3333333333333)"><circle cx="3" cy="3" r="3"/></g>
<g  transform="translate(440,320) scale(3.3333333333333)"><circle cx="3" cy="3" r="3"/></g>
<g  transform="translate(460,320) scale(3.3333333333333)"><circle cx="3" cy="3" r="3"/></g>
<g  transform="translate(500,320) scale(3.3333333333333)"><circle cx="3" cy="3" r="3"/></g>
<g  transform="translate(520,320) scale(3.3333333333333)"><circle cx="3" cy="3" r="3"/></g>
<g  transform="translate(40,340) scale(3.3333333333333)"><circle cx="3" cy="3" r="3"/></g>
<g  transform="translate(100,340) scale(3.3333333333333)"><circle cx="3" cy="3" r="3"/></g>
<g  transform="translate(280,340) scale(3.3333333333333)"><circle cx="3" cy="3" r="3"/></g>
<g  transform="translate(360,340) scale(3.3333333333333)"><circle cx="3" cy="3" r="3"/></g>
<g  transform="translate(400,340) scale(3.3333333333333)"><circle cx="3" cy="3" r="3"/></g>
<g  transform="translate(420,340) scale(3.3333333333333)"><circle cx="3" cy="3" r="3"/></g>
<g  transform="translate(440,340) scale(3.3333333333333)"><circle cx="3" cy="3" r="3"/></g>
<g  transform="translate(520,340) scale(3.3333333333333)"><circle cx="3" cy="3" r="3"/></g>
<g  transform="translate(40,360) scale(3.3333333333333)"><circle cx="3" cy="3" r="3"/></g>
<g  transform="translate(80,360) scale(3.3333333333333)"><circle cx="3" cy="3" r="3"/></g>
<g  transform="translate(100,360) scale(3.3333333333333)"><circle cx="3" cy="3" r="3"/></g>
<g  transform="translate(160,360) scale(3.3333333333333)"><circle cx="3" cy="3" r="3"/></g>
<g  transform="translate(180,360) scale(3.3333333333333)"><circle cx="3" cy="3" r="3"/></g>
<g  transform="translate(240,360) scale(3.3333333333333)"><circle cx="3" cy="3" r="3"/></g>
<g  transform="translate(280,360) scale(3.3333333333333)"><circle cx="3" cy="3" r="3"/></g>
<g  transform="translate(300,360) scale(3.3333333333333)"><circle cx="3" cy="3" r="3"/></g>
<g  transform="translate(320,360) scale(3.3333333333333)"><circle cx="3" cy="3" r="3"/></g>
<g  transform="translate(360,360) scale(3.3333333333333)"><circle cx="3" cy="3" r="3"/></g>
<g  transform="translate(380,360) scale(3.3333333333333)"><circle cx="3" cy="3" r="3"/></g>
<g  transform="translate(400,360) scale(3.3333333333333)"><circle cx="3" cy="3" r="3"/></g>
<g  transform="translate(420,360) scale(3.3333333333333)"><circle cx="3" cy="3" r="3"/></g>
<g  transform="translate(440,360) scale(3.3333333333333)"><circle cx="3" cy="3" r="3"/></g>
<g  transform="translate(480,360) scale(3.3333333333333)"><circle cx="3" cy="3" r="3"/></g>
<g  transform="translate(200,380) scale(3.3333333333333)"><circle cx="3" cy="3" r="3"/></g>
<g  transform="translate(220,380) scale(3.3333333333333)"><circle cx="3" cy="3" r="3"/></g>
<g  transform="translate(340,380) scale(3.3333333333333)"><circle cx="3" cy="3" r="3"/></g>
<g  transform="translate(360,380) scale(3.3333333333333)"><circle cx="3" cy="3" r="3"/></g>
<g  transform="translate(440,380) scale(3.3333333333333)"><circle cx="3" cy="3" r="3"/></g>
<g  transform="translate(460,380) scale(3.3333333333333)"><circle cx="3" cy="3" r="3"/></g>
<g  transform="translate(200,400) scale(3.3333333333333)"><circle cx="3" cy="3" r="3"/></g>
<g  transform="translate(240,400) scale(3.3333333333333)"><circle cx="3" cy="3" r="3"/></g>
<g  transform="translate(260,400) scale(3.3333333333333)"><circle cx="3" cy="3" r="3"/></g>
<g  transform="translate(280,400) scale(3.3333333333333)"><circle cx="3" cy="3" r="3"/></g>
<g  transform="translate(300,400) scale(3.3333333333333)"><circle cx="3" cy="3" r="3"/></g>
<g  transform="translate(360,400) scale(3.3333333333333)"><circle cx="3" cy="3" r="3"/></g>
<g  transform="translate(400,400) scale(3.3333333333333)"><circle cx="3" cy="3" r="3"/></g>
<g  transform="translate(440,400) scale(3.3333333333333)"><circle cx="3" cy="3" r="3"/></g>
<g  transform="translate(480,400) scale(3.3333333333333)"><circle cx="3" cy="3" r="3"/></g>
<g  transform="translate(500,400) scale(3.3333333333333)"><circle cx="3" cy="3" r="3"/></g>
<g  transform="translate(520,400) scale(3.3333333333333)"><circle cx="3" cy="3" r="3"/></g>
<g  transform="translate(260,420) scale(3.3333333333333)"><circle cx="3" cy="3" r="3"/></g>
<g  transform="translate(320,420) scale(3.3333333333333)"><circle cx="3" cy="3" r="3"/></g>
<g  transform="translate(340,420) scale(3.3333333333333)"><circle cx="3" cy="3" r="3"/></g>
<g  transform="translate(360,420) scale(3.3333333333333)"><circle cx="3" cy="3" r="3"/></g>
<g  transform="translate(440,420) scale(3.3333333333333)"><circle cx="3" cy="3" r="3"/></g>
<g  transform="translate(460,420) scale(3.3333333333333)"><circle cx="3" cy="3" r="3"/></g>
<g  transform="translate(520,420) scale(3.3333333333333)"><circle cx="3" cy="3" r="3"/></g>
<g  transform="translate(200,440) scale(3.3333333333333)"><circle cx="3" cy="3" r="3"/></g>
<g  transform="translate(220,440) scale(3.3333333333333)"><circle cx="3" cy="3" r="3"/></g>
<g  transform="translate(240,440) scale(3.3333333333333)"><circle cx="3" cy="3" r="3"/></g>
<g  transform="translate(260,440) scale(3.3333333333333)"><circle cx="3" cy="3" r="3"/></g>
<g  transform="translate(280,440) scale(3.3333333333333)"><circle cx="3" cy="3" r="3"/></g>
<g  transform="translate(300,440) scale(3.3333333333333)"><circle cx="3" cy="3" r="3"/></g>
<g  transform="translate(320,440) scale(3.3333333333333)"><circle cx="3" cy="3" r="3"/></g>
<g  transform="translate(340,440) scale(3.3333333333333)"><circle cx="3" cy="3" r="3"/></g>
<g  transform="translate(360,440) scale(3.3333333333333)"><circle cx="3" cy="3" r="3"/></g>
<g  transform="translate(380,440) scale(3.3333333333333)"><circle cx="3" cy="3" r="3"/></g>
<g  transform="translate(400,440) scale(3.3333333333333)"><circle cx="3" cy="3" r="3"/></g>
<g  transform="translate(420,440) scale(3.3333333333333)"><circle cx="3" cy="3" r="3"/></g>
<g  transform="translate(440,440) scale(3.3333333333333)"><circle cx="3" cy="3" r="3"/></g>
<g  transform="translate(480,440) scale(3.3333333333333)"><circle cx="3" cy="3" r="3"/></g>
<g  transform="translate(200,460) scale(3.3333333333333)"><circle cx="3" cy="3" r="3"/></g>
<g  transform="translate(240,460) scale(3.3333333333333)"><circle cx="3" cy="3" r="3"/></g>
<g  transform="translate(280,460) scale(3.3333333333333)"><circle cx="3" cy="3" r="3"/></g>
<g  transform="translate(300,460) scale(3.3333333333333)"><circle cx="3" cy="3" r="3"/></g>
<g  transform="translate(360,460) scale(3.3333333333333)"><circle cx="3" cy="3" r="3"/></g>
<g  transform="translate(380,460) scale(3.3333333333333)"><circle cx="3" cy="3" r="3"/></g>
<g  transform="translate(400,460) scale(3.3333333333333)"><circle cx="3" cy="3" r="3"/></g>
<g  transform="translate(440,460) scale(3.3333333333333)"><circle cx="3" cy="3" r="3"/></g>
<g  transform="translate(460,460) scale(3.3333333333333)"><circle cx="3" cy="3" r="3"/></g>
<g  transform="translate(480,460) scale(3.3333333333333)"><circle cx="3" cy="3" r="3"/></g>
<g  transform="translate(500,460) scale(3.3333333333333)"><circle cx="3" cy="3" r="3"/></g>
<g  transform="translate(520,460) scale(3.3333333333333)"><circle cx="3" cy="3" r="3"/></g>
<g  transform="translate(200,480) scale(3.3333333333333)"><circle cx="3" cy="3" r="3"/></g>
<g  transform="translate(220,480) scale(3.3333333333333)"><circle cx="3" cy="3" r="3"/></g>
<g  transform="translate(300,480) scale(3.3333333333333)"><circle cx="3" cy="3" r="3"/></g>
<g  transform="translate(320,480) scale(3.3333333333333)"><circle cx="3" cy="3" r="3"/></g>
<g  transform="translate(340,480) scale(3.3333333333333)"><circle cx="3" cy="3" r="3"/></g>
<g  transform="translate(460,480) scale(3.3333333333333)"><circle cx="3" cy="3" r="3"/></g>
<g  transform="translate(480,480) scale(3.3333333333333)"><circle cx="3" cy="3" r="3"/></g>
<g  transform="translate(520,480) scale(3.3333333333333)"><circle cx="3" cy="3" r="3"/></g>
<g  transform="translate(200,500) scale(3.3333333333333)"><circle cx="3" cy="3" r="3"/></g>
<g  transform="translate(220,500) scale(3.3333333333333)"><circle cx="3" cy="3" r="3"/></g>
<g  transform="translate(320,500) scale(3.3333333333333)"><circle cx="3" cy="3" r="3"/></g>
<g  transform="translate(360,500) scale(3.3333333333333)"><circle cx="3" cy="3" r="3"/></g>
<g  transform="translate(380,500) scale(3.3333333333333)"><circle cx="3" cy="3" r="3"/></g>
<g  transform="translate(400,500) scale(3.3333333333333)"><circle cx="3" cy="3" r="3"/></g>
<g  transform="translate(420,500) scale(3.3333333333333)"><circle cx="3" cy="3" r="3"/></g>
<g  transform="translate(440,500) scale(3.3333333333333)"><circle cx="3" cy="3" r="3"/></g>
<g  transform="translate(460,500) scale(3.3333333333333)"><circle cx="3" cy="3" r="3"/></g>
<g  transform="translate(520,500) scale(3.3333333333333)"><circle cx="3" cy="3" r="3"/></g>
<g  transform="translate(200,520) scale(3.3333333333333)"><circle cx="3" cy="3" r="3"/></g>
<g  transform="translate(220,520) scale(3.3333333333333)"><circle cx="3" cy="3" r="3"/></g>
<g  transform="translate(260,520) scale(3.3333333333333)"><circle cx="3" cy="3" r="3"/></g>
<g  transform="translate(280,520) scale(3.3333333333333)"><circle cx="3" cy="3" r="3"/></g>
<g  transform="translate(300,520) scale(3.3333333333333)"><circle cx="3" cy="3" r="3"/></g>
<g  transform="translate(320,520) scale(3.3333333333333)"><circle cx="3" cy="3" r="3"/></g>
<g  transform="translate(380,520) scale(3.3333333333333)"><circle cx="3" cy="3" r="3"/></g>
<g  transform="translate(400,520) scale(3.3333333333333)"><circle cx="3" cy="3" r="3"/></g>
<g  transform="translate(420,520) scale(3.3333333333333)"><circle cx="3" cy="3" r="3"/></g>
<g  transform="translate(440,520) scale(3.3333333333333)"><circle cx="3" cy="3" r="3"/></g>
<g  transform="translate(460,520) scale(3.3333333333333)"><circle cx="3" cy="3" r="3"/></g>
<g  transform="translate(480,520) scale(3.3333333333333)"><circle cx="3" cy="3" r="3"/></g>
<g  transform="translate(500,520) scale(3.3333333333333)"><circle cx="3" cy="3" r="3"/></g>
<g  transform="translate(520,520) scale(3.3333333333333)"><circle cx="3" cy="3" r="3"/></g>
<g transform="translate(40,40)"><g transform="scale(10)"><path  d="M0,0v14h14V0H0z M12,12H2V2h10V12z"/></g></g>
<g  transform="translate(400,40)"><g transform="scale(10)"><path  d="M0,0v14h14V0H0z M12,12H2V2h10V12z"/></g></g>
<g  transform="translate(40,400)"><g transform="scale(10)"><path  d="M0,0v14h14V0H0z M12,12H2V2h10V12z"/></g></g>
<g transform="translate(80,80)"><g transform="scale(10)"><rect width="6" height="6" /></g></g>
<g transform="translate(440,80)"><g transform="scale(10)"><rect width="6" height="6" /></g></g>
<g transform="translate(80,440)"><g transform="scale(10)"><rect width="6" height="6" /></g></g>
</g></svg>