<svg id="svg-content" xmlns="http://www.w3.org/2000/svg" xml:space="preserve" xmlns:xlink="http://www.w3.org/1999/xlink" width="740" height="740" viewBox="0 0 740 740">
<rect width="740" height="740" fill="#ffffff" x="0" y="0" />
<g fill="#000000">
<g  transform="translate(240,40) scale(3.3333333333333)"><circle cx="3" cy="3" r="3"/></g>
<g  transform="translate(280,40) scale(3.3333333333333)"><circle cx="3" cy="3" r="3"/></g>
<g  transform="translate(300,40) scale(3.3333333333333)"><circle cx="3" cy="3" r="3"/></g>
<g  transform="translate(340,40) scale(3.3333333333333)"><circle cx="3" cy="3" r="3"/></g>
<g  transform="translate(460,40) scale(3.3333333333333)"><circle cx="3" cy="3" r="3"/></g>
<g  transform="translate(500,40) scale(3.3333333333333)"><circle cx="3" cy="3" r="3"/></g>
<g  transform="translate(520,40) scale(3.3333333333333)"><circle cx="3" cy="3" r="3"/></g>
<g  transform="translate(200,60) scale(3.3333333333333)"><circle cx="3" cy="3" r="3"/></g>
<g  transform="translate(240,60) scale(3.3333333333333)"><circle cx="3" cy="3" r="3"/></g>
<g  transform="translate(300,60) scale(3.3333333333333)"><circle cx="3" cy="3" r="3"/></g>
<g  transform="translate(340,60) scale(3.3333333333333)"><circle cx="3" cy="3" r="3"/></g>
<g  transform="translate(380,60) scale(3.3333333333333)"><circle cx="3" cy="3" r="3"/></g>
<g  transform="translate(460,60) scale(3.3333333333333)"><circle cx="3" cy="3" r="3"/></g>
<g  transform="translate(280,80) scale(3.3333333333333)"><circle cx="3" cy="3" r="3"/></g>
<g  transform="translate(300,80) scale(3.3333333333333)"><circle cx="3" cy="3" r="3"/></g>
<g  transform="translate(400,80) scale(3.3333333333333)"><circle cx="3" cy="3" r="3"/></g>
<g  transform="translate(420,80) scale(3.3333333333333)"><circle cx="3" cy="3" r="3"/></g>
<g  transform="translate(440,80) scale(3.3333333333333)"><circle cx="3" cy="3" r="3"/></g>
<g  transform="translate(460,80) scale(3.3333333333333)"><circle cx="3" cy="3" r="3"/></g>
<g  transform="translate(480,80) scale(3.3333333333333)"><circle cx="3" cy="3" r="3"/></g>
<g  transform="translate(200,100) scale(3.3333333333333)"><circle cx="3" cy="3" r="3"/></g>
<g  transform="translate(220,100) scale(3.3333333333333)"><circle cx="3" cy="3" r="3"/></g>
<g  transform="translate(240,100) scale(3.3333333333333)"><circle cx="3" cy="3" r="3"/></g>
<g  transform="translate(280,100) scale(3.3333333333333)"><circle cx="3" cy="3" r="3"/></g>
<g  transform="translate(340,100) scale(3.3333333333333)"><circle cx="3" cy="3" r="3"/></g>
<g  transform="translate(360,100) scale(3.3333333333333)"><circle cx="3" cy="3" r="3"/></g>
<g  transform="translate(380,100) scale(3.3333333333333)"><circle cx="3" cy="3" r="3"/></g>
<g  transform="translate(440,100) scale(3.3333333333333)"><circle cx="3" cy="3" r="3"/></g>
<g  transform="translate(460,100) scale(3.3333333333333)"><circle cx="3" cy="3" r="3"/></g>
<g  transform="translate(500,100) scale(3.3333333333333)"><circle cx="3" cy="3" r="3"/></g>
<g  transform="translate(220,120) scale(3.3333333333333)"><circle cx="3" cy="3" r="3"/></g>
<g  transform="translate(340,120) scale(3.3333333333333)"><circle cx="3" cy="3" r="3"/></g>
<g  transform="translate(360,120) scale(3.3333333333333)"><circle cx="3" cy="3" r="3"/></g>
<g  transform="translate(380,120) scale(3.3333333333333)"><circle cx="3" cy="3" r="3"/></g>
<g  transform="translate(400,120) scale(3.3333333333333)"><circle cx="3" cy="3" r="3"/></g>
<g  transform="translate(420,120) scale(3.3333333333333)"><circle cx="3" cy="3" r="3"/></g>
<g  transform="translate(440,120) scale(3.3333333333333)"><circle cx="3" cy="3" r="3"/></g>
<g  transform="translate(480,120) scale(3.3333333333333)"><circle cx="3" cy="3" r="3"/></g>
<g  transform="translate(500,120) scale(3.3333333333333)"><circle cx="3" cy="3" r="3"/></g>
<g  transform="translate(200,140) scale(3.3333333333333)"><circle cx="3" cy="3" r="3"/></g>
<g  transform="translate(220,140) scale(3.3333333333333)"><circle cx="3" cy="3" r="3"/></g>
<g  transform="translate(260,140) scale(3.3333333333333)"><circle cx="3" cy="3" r="3"/></g>
<g  transform="translate(280,140) scale(3.3333333333333)"><circle cx="3" cy="3" r="3"/></g>
<g  transform="translate(380,140) scale(3.3333333333333)"><circle cx="3" cy="3" r="3"/></g>
<g  transform="translate(440,140) scale(3.3333333333333)"><circle cx="3" cy="3" r="3"/></g>
<g  transform="translate(480,140) scale(3.3333333333333)"><circle cx="3" cy="3" r="3"/></g>
<g  transform="translate(200,160) scale(3.3333333333333)"><circle cx="3" cy="3" r="3"/></g>
<g  transform="translate(240,160) scale(3.3333333333333)"><circle cx="3" cy="3" r="3"/></g>
<g  transform="translate(280,160) scale(3.3333333333333)"><circle cx="3" cy="3" r="3"/></g>
<g  transform="translate(320,160) scale(3.3333333333333)"><circle cx="3" cy="3" r="3"/></g>
<g  transform="translate(360,160) scale(3.3333333333333)"><circle cx="3" cy="3" r="3"/></g>
<g  transform="translate(400,160) scale(3.3333333333333)"><circle cx="3" cy="3" r="3"/></g>
<g  transform="translate(440,160) scale(3.3333333333333)"><circle cx="3" cy="3" r="3"/></g>
<g  transform="translate(480,160) scale(3.3333333333333)"><circle cx="3" cy="3" r="3"/></g>
<g  transform="translate(520,160) scale(3.3333333333333)"><circle cx="3" cy="3" r="3"/></g>
<g  transform="translate(220,180) scale(3.3333333333333)"><circle cx="3" cy="3" r="3"/></g>
<g  transform="translate(240,180) scale(3.3333333333333)"><circle cx="3" cy="3" r="3"/></g>
<g  transform="translate(260,180) scale(3.3333333333333)"><circle cx="3" cy="3" r="3"/></g>
<g  transform="translate(380,180) scale(3.3333333333333)"><circle cx="3" cy="3" r="3"/></g>
<g  transform="translate(400,180) scale(3.3333333333333)"><circle cx="3" cy="3" r="3"/></g>
<g  transform="translate(440,180) scale(3.3333333333333)"><circle cx="3" cy="3" r="3"/></g>
<g  transform="translate(500,180) scale(3.3333333333333)"><circle cx="3" cy="3" r="3"/></g>
<g  transform="translate(40,200) scale(3.3333333333333)"><circle cx="3" cy="3" r="3"/></g>
<g  transform="translate(60,200) scale(3.3333333333333)"><circle cx="3" cy="3" r="3"/></g>
<g  transform="translate(80,200) scale(3.3333333333333)"><circle cx="3" cy="3" r="3"/></g>
<g  transform="translate(100,200) scale(3.3333333333333)"><circle cx="3" cy="3" r="3"/></g>
<g  transform="translate(120,200) scale(3.3333333333333)"><circle cx="3" cy="3" r="3"/></g>
<g  transform="translate(160,200) scale(3.3333333333333)"><circle cx="3" cy="3" r="3"/></g>
<g  transform="translate(180,200) scale(3.3333333333333)"><circle cx="3" cy="3" r="3"/></g>
<g  transform="translate(200,200) scale(3.3333333333333)"><circle cx="3" cy="3" r="3"/></g>
<g  transform="translate(220,200) scale(3.3333333333333)"><circle cx="3" cy="3" r="3"/></g>
<g  transform="translate(260,200) scale(3.3333333333333)"><circle cx="3" cy="3" r="3"/></g>
<g  transform="translate(460,200) scale(3.3333333333333)"><circle cx="3" cy="3" r="3"/></g>
<g  transform="translate(540,200) scale(3.3333333333333)"><circle cx="3" cy="3" r="3"/></g>
<g  transform="translate(580,200) scale(3.3333333333333)"><circle cx="3" cy="3" r="3"/></g>
<g  transform="translate(620,200) scale(3.3333333333333)"><circle cx="3" cy="3" r="3"/></g>
<g  transform="translate(660,200) scale(3.3333333333333)"><circle cx="3" cy="3" r="3"/></g>
<g  transform="translate(60,220) scale(3.3333333333333)"><circle cx="3" cy="3" r="3"/></g>
<g  transform="translate(80,220) scale(3.3333333333333)"><circle cx="3" cy="3" r="3"/></g>
<g  transform="translate(100,220) scale(3.3333333333333)"><circle cx="3" cy="3" r="3"/></g>
<g  transform="translate(120,220) scale(3.3333333333333)"><circle cx="3" cy="3" r="3"/></g>
<g  transform="translate(140,220) scale(3.3333333333333)"><circle cx="3" cy="3" r="3"/></g>
<g  transform="translate(240,220) scale(3.3333333333333)"><circle cx="3" cy="3" r="3"/></g>
<g  transform="translate(280,220) scale(3.3333333333333)"><circle cx="3" cy="3" r="3"/></g>
<g  transform="translate(300,220) scale(3.3333333333333)"><circle cx="3" cy="3" r="3"/></g>
<g  transform="translate(340,220) scale(3.3333333333333)"><circle cx="3" cy="3" r="3"/></g>
<g  transform="translate(420,220) scale(3.3333333333333)"><circle cx="3" cy="3" r="3"/></g>
<g  transform="translate(500,220) scale(3.3333333333333)"><circle cx="3" cy="3" r="3"/></g>
<g  transform="translate(520,220) scale(3.3333333333333)"><circle cx="3" cy="3" r="3"/></g>
<g  transform="translate(540,220) scale(3.3333333333333)"><circle cx="3" cy="3" r="3"/></g>
<g  transform="translate(560,220) scale(3.3333333333333)"><circle cx="3" cy="3" r="3"/></g>
<g  transform="translate(580,220) scale(3.3333333333333)"><circle cx="3" cy="3" r="3"/></g>
<g  transform="translate(640,220) scale(3.3333333333333)"><circle cx="3" cy="3" r="3"/></g>
<g  transform="translate(660,220) scale(3.3333333333333)"><circle cx="3" cy="3" r="3"/></g>
<g  transform="translate(40,240) scale(3.3333333333333)"><circle cx="3" cy="3" r="3"/></g>
<g  transform="translate(80,240) scale(3.3333333333333)"><circle cx="3" cy="3" r="3"/></g>
<g  transform="translate(120,240) scale(3.3333333333333)"><circle cx="3" cy="3" r="3"/></g>
<g  transform="translate(160,240) scale(3.3333333333333)"><circle cx="3" cy="3" r="3"/></g>
<g  transform="translate(200,240) scale(3.3333333333333)"><circle cx="3" cy="3" r="3"/></g>
<g  transform="translate(240,240) scale(3.3333333333333)"><circle cx="3" cy="3" r="3"/></g>
<g  transform="translate(300,240) scale(3.3333333333333)"><circle cx="3" cy="3" r="3"/></g>
<g  transform="translate(320,240) scale(3.3333333333333)"><circle cx="3" cy="3" r="3"/></g>
<g  transform="translate(340,240) scale(3.3333333333333)"><circle cx="3" cy="3" r="3"/></g>
<g  transform="translate(400,240) scale(3.3333333333333)"><circle cx="3" cy="3" r="3"/></g>
<g  transform="translate(420,240) scale(3.3333333333333)"><circle cx="3" cy="3" r="3"/></g>
<g  transform="translate(440,240) scale(3.3333333333333)"><circle cx="3" cy="3" r="3"/></g>
<g  transform="translate(480,240) scale(3.3333333333333)"><circle cx="3" cy="3" r="3"/></g>
<g  transform="translate(540,240) scale(3.3333333333333)"><circle cx="3" cy="3" r="3"/></g>
<g  transform="translate(580,240) scale(3.3333333333333)"><circle cx="3" cy="3" r="3"/></g>
<g  transform="translate(640,240) scale(3.3333333333333)"><circle cx="3" cy="3" r="3"/></g>
<g  transform="translate(660,240) scale(3.3333333333333)"><circle cx="3" cy="3" r="3"/></g>
<g  transform="translate(40,260) scale(3.3333333333333)"><circle cx="3" cy="3" r="3"/></g>
<g  transform="translate(140,260) scale(3.3333333333333)"><circle cx="3" cy="3" r="3"/></g>
<g  transform="translate(200,260) scale(3.3333333333333)"><circle cx="3" cy="3" r="3"/></g>
<g  transform="translate(280,260) scale(3.3333333333333)"><circle cx="3" cy="3" r="3"/></g>
<g  transform="translate(300,260) scale(3.3333333333333)"><circle cx="3" cy="3" r="3"/></g>
<g  transform="translate(460,260) scale(3.3333333333333)"><circle cx="3" cy="3" r="3"/></g>
<g  transform="translate(480,260) scale(3.3333333333333)"><circle cx="3" cy="3" r="3"/></g>
<g  transform="translate(520,260) scale(3.3333333333333)"><circle cx="3" cy="3" r="3"/></g>
<g  transform="translate(540,260) scale(3.3333333333333)"><circle cx="3" cy="3" r="3"/></g>
<g  transform="translate(580,260) scale(3.3333333333333)"><circle cx="3" cy="3" r="3"/></g>
<g  transform="translate(600,260) scale(3.3333333333333)"><circle cx="3" cy="3" r="3"/></g>
<g  transform="translate(640,260) scale(3.3333333333333)"><circle cx="3" cy="3" r="3"/></g>
<g  transform="translate(660,260) scale(3.3333333333333)"><circle cx="3" cy="3" r="3"/></g>
<g  transform="translate(40,280) scale(3.3333333333333)"><circle cx="3" cy="3" r="3"/></g>
<g  transform="translate(120,280) scale(3.3333333333333)"><circle cx="3" cy="3" r="3"/></g>
<g  transform="translate(140,280) scale(3.3333333333333)"><circle cx="3" cy="3" r="3"/></g>
<g  transform="translate(160,280) scale(3.3333333333333)"><circle cx="3" cy="3" r="3"/></g>
<g  transform="translate(220,280) scale(3.3333333333333)"><circle cx="3" cy="3" r="3"/></g>
<g  transform="translate(240,280) scale(3.3333333333333)"><circle cx="3" cy="3" r="3"/></g>
<g  transform="translate(280,280) scale(3.3333333333333)"><circle cx="3" cy="3" r="3"/></g>
<g  transform="translate(320,280) scale(3.3333333333333)"><circle cx="3" cy="3" r="3"/></g>
<g  transform="translate(340,280) scale(3.3333333333333)"><circle cx="3" cy="3" r="3"/></g>
<g  transform="translate(360,280) scale(3.3333333333333)"><circle cx="3" cy="3" r="3"/></g>
<g  transform="translate(420,280) scale(3.3333333333333)"><circle cx="3" cy="3" r="3"/></g>
<g  transform="translate(440,280) scale(3.3333333333333)"><circle cx="3" cy="3" r="3"/></g>
<g  transform="translate(480,280) scale(3.3333333333333)"><circle cx="3" cy="3" r="3"/></g>
<g  transform="translate(500,280) scale(3.3333333333333)"><circle cx="3" cy="3" r="3"/></g>
<g  transform="translate(520,280) scale(3.3333333333333)"><circle cx="3" cy="3" r="3"/></g>
<g  transform="translate(60,300) scale(3.3333333333333)"><circle cx="3" cy="3" r="3"/></g>
<g  transform="translate(80,300) scale(3.3333333333333)"><circle cx="3" cy="3" r="3"/></g>
<g  transform="translate(120,300) scale(3.3333333333333)"><circle cx="3" cy="3" r="3"/></g>
<g  transform="translate(140,300) scale(3.3333333333333)"><circle cx="3" cy="3" r="3"/></g>
<g  transform="translate(220,300) scale(3.3333333333333)"><circle cx="3" cy="3" r="3"/></g>
<g  transform="translate(340,300) scale(3.3333333333333)"><circle cx="3" cy="3" r="3"/></g>
<g  transform="translate(380,300) scale(3.3333333333333)"><circle cx="3" cy="3" r="3"/></g>
<g  transform="translate(440,300) scale(3.3333333333333)"><circle cx="3" cy="3" r="3"/></g>
<g  transform="translate(460,300) scale(3.3333333333333)"><circle cx="3" cy="3" r="3"/></g>
<g  transform="translate(500,300) scale(3.3333333333333)"><circle cx="3" cy="3" r="3"/></g>
<g  transform="translate(520,300) scale(3.3333333333333)"><circle cx="3" cy="3" r="3"/></g>
<g  transform="translate(540,300) scale(3.3333333333333)"><circle cx="3" cy="3" r="3"/></g>
<g  transform="translate(560,300) scale(3.3333333333333)"><circle cx="3" cy="3" r="3"/></g>
<g  transform="translate(620,300) scale(3.3333333333333)"><circle cx="3" cy="3" r="3"/></g>
<g  transform="translate(640,300) scale(3.3333333333333)"><circle cx="3" cy="3" r="3"/></g>
<g  transform="translate(680,300) scale(3.3333333333333)"><circle cx="3" cy="3" r="3"/></g>
<g  transform="translate(40,320) scale(3.3333333333333)"><circle cx="3" cy="3" r="3"/></g>
<g  transform="translate(100,320) scale(3.3333333333333)"><circle cx="3" cy="3" r="3"/></g>
<g  transform="translate(160,320) scale(3.3333333333333)"><circle cx="3" cy="3" r="3"/></g>
<g  transform="translate(220,320) scale(3.3333333333333)"><circle cx="3" cy="3" r="3"/></g>
<g  transform="translate(240,320) scale(3.3333333333333)"><circle cx="3" cy="3" r="3"/></g>
<g  transform="translate(260,320) scale(3.3333333333333)"><circle cx="3" cy="3" r="3"/></g>
<g  transform="translate(280,320) scale(3.3333333333333)"><circle cx="3" cy="3" r="3"/></g>
<g  transform="translate(340,320) scale(3.3333333333333)"><circle cx="3" cy="3" r="3"/></g>
<g  transform="translate(360,320) scale(3.3333333333333)"><circle cx="3" cy="3" r="3"/></g>
<g  transform="translate(380,320) scale(3.3333333333333)"><circle cx="3" cy="3" r="3"/></g>
<g  transform="translate(400,320) scale(3.3333333333333)"><circle cx="3" cy="3" r="3"/></g>
<g  transform="translate(420,320) scale(3.3333333333333)"><circle cx="3" cy="3" r="3"/></g>
<g  transform="translate(440,320) scale(3.3333333333333)"><circle cx="3" cy="3" r="3"/></g>
<g  transform="translate(480,320) scale(3.3333333333333)"><circle cx="3" cy="3" r="3"/></g>
<g  transform="translate(540,320) scale(3.3333333333333)"><circle cx="3" cy="3" r="3"/></g>
<g  transform="translate(580,320) scale(3.3333333333333)"><circle cx="3" cy="3" r="3"/></g>
<g  transform="translate(600,320) scale(3.3333333333333)"><circle cx="3" cy="3" r="3"/></g>
<g  transform="translate(620,320) scale(3.3333333333333)"><circle cx="3" cy="3" r="3"/></g>
<g  transform="translate(640,320) scale(3.3333333333333)"><circle cx="3" cy="3" r="3"/></g>
<g  transform="translate(40,340) scale(3.3333333333333)"><circle cx="3" cy="3" r="3"/></g>
<g  transform="translate(80,340) scale(3.3333333333333)"><circle cx="3" cy="3" r="3"/></g>
<g  transform="translate(100,340) scale(3.3333333333333)"><circle cx="3" cy="3" r="3"/></g>
<g  transform="translate(200,340) scale(3.3333333333333)"><circle cx="3" cy="3" r="3"/></g>
<g  transform="translate(240,340) scale(3.3333333333333)"><circle cx="3" cy="3" r="3"/></g>
<g  transform="translate(260,340) scale(3.3333333333333)"><circle cx="3" cy="3" r="3"/></g>
<g  transform="translate(320,340) scale(3.3333333333333)"><circle cx="3" cy="3" r="3"/></g>
<g  transform="translate(340,340) scale(3.3333333333333)"><circle cx="3" cy="3" r="3"/></g>
<g  transform="translate(400,340) scale(3.3333333333333)"><circle cx="3" cy="3" r="3"/></g>
<g  transform="translate(500,340) scale(3.3333333333333)"><circle cx="3" cy="3" r="3"/></g>
<g  transform="translate(520,340) scale(3.3333333333333)"><circle cx="3" cy="3" r="3"/></g>
<g  transform="translate(580,340) scale(3.3333333333333)"><circle cx="3" cy="3" r="3"/></g>
<g  transform="translate(600,340) scale(3.3333333333333)"><circle cx="3" cy="3" r="3"/></g>
<g  transform="translate(620,340) scale(3.3333333333333)"><circle cx="3" cy="3" r="3"/></g>
<g  transform="translate(640,340) scale(3.3333333333333)"><circle cx="3" cy="3" r="3"/></g>
<g  transform="translate(660,340) scale(3.3333333333333)"><circle cx="3" cy="3" r="3"/></g>
<g  transform="translate(680,340) scale(3.3333333333333)"><circle cx="3" cy="3" r="3"/></g>
<g  transform="translate(60,360) scale(3.3333333333333)"><circle cx="3" cy="3" r="3"/></g>
<g  transform="translate(80,360) scale(3.3333333333333)"><circle cx="3" cy="3" r="3"/></g>
<g  transform="translate(100,360) scale(3.3333333333333)"><circle cx="3" cy="3" r="3"/></g>
<g  transform="translate(120,360) scale(3.3333333333333)"><circle cx="3" cy="3" r="3"/></g>
<g  transform="translate(160,360) scale(3.3333333333333)"><circle cx="3" cy="3" r="3"/></g>
<g  transform="translate(200,360) scale(3.3333333333333)"><circle cx="3" cy="3" r="3"/></g>
<g  transform="translate(220,360) scale(3.3333333333333)"><circle cx="3" cy="3" r="3"/></g>
<g  transform="translate(240,360) scale(3.3333333333333)"><circle cx="3" cy="3" r="3"/></g>
<g  transform="translate(260,360) scale(3.3333333333333)"><circle cx="3" cy="3" r="3"/></g>
<g  transform="translate(440,360) scale(3.3333333333333)"><circle cx="3" cy="3" r="3"/></g>
<g  transform="translate(460,360) scale(3.3333333333333)"><circle cx="3" cy="3" r="3"/></g>
<g  transform="translate(480,360) scale(3.3333333333333)"><circle cx="3" cy="3" r="3"/></g>
<g  transform="translate(520,360) scale(3.3333333333333)"><circle cx="3" cy="3" r="3"/></g>
<g  transform="translate(640,360) scale(3.3333333333333)"><circle cx="3" cy="3" r="3"/></g>
<g  transform="translate(660,360) scale(3.3333333333333)"><circle cx="3" cy="3" r="3"/></g>
<g  transform="translate(680,360) scale(3.3333333333333)"><circle cx="3" cy="3" r="3"/></g>
<g  transform="translate(80,380) scale(3.3333333333333)"><circle cx="3" cy="3" r="3"/></g>
<g  transform="translate(100,380) scale(3.3333333333333)"><circle cx="3" cy="3" r="3"/></g>
<g  transform="translate(220,380) scale(3.3333333333333)"><circle cx="3" cy="3" r="3"/></g>
<g  transform="translate(280,380) scale(3.3333333333333)"><circle cx="3" cy="3" r="3"/></g>
<g  transform="translate(300,380) scale(3.3333333333333)"><circle cx="3" cy="3" r="3"/></g>
<g  transform="translate(320,380) scale(3.3333333333333)"><circle cx="3" cy="3" r="3"/></g>
<g  transform="translate(340,380) scale(3.3333333333333)"><circle cx="3" cy="3" r="3"/></g>
<g  transform="translate(360,380) scale(3.3333333333333)"><circle cx="3" cy="3" r="3"/></g>
<g  transform="translate(380,380) scale(3.3333333333333)"><circle cx="3" cy="3" r="3"/></g>
<g  transform="translate(400,380) scale(3.3333333333333)"><circle cx="3" cy="3" r="3"/></g>
<g  transform="translate(460,380) scale(3.3333333333333)"><circle cx="3" cy="3" r="3"/></g>
<g  transform="translate(560,380) scale(3.3333333333333)"><circle cx="3" cy="3" r="3"/></g>
<g  transform="translate(640,380) scale(3.3333333333333)"><circle cx="3" cy="3" r="3"/></g>
<g  transform="translate(40,400) scale(3.3333333333333)"><circle cx="3" cy="3" r="3"/></g>
<g  transform="translate(120,400) scale(3.3333333333333)"><circle cx="3" cy="3" r="3"/></g>
<g  transform="translate(160,400) scale(3.3333333333333)"><circle cx="3" cy="3" r="3"/></g>
<g  transform="translate(180,400) scale(3.3333333333333)"><circle cx="3" cy="3" r="3"/></g>
<g  transform="translate(200,400) scale(3.3333333333333)"><circle cx="3" cy="3" r="3"/></g>
<g  transform="translate(300,400) scale(3.3333333333333)"><circle cx="3" cy="3" r="3"/></g>
<g  transform="translate(320,400) scale(3.3333333333333)"><circle cx="3" cy="3" r="3"/></g>
<g  transform="translate(340,400) scale(3.3333333333333)"><circle cx="3" cy="3" r="3"/></g>
<g  transform="translate(380,400) scale(3.3333333333333)"><circle cx="3" cy="3" r="3"/></g>
<g  transform="translate(420,400) scale(3.3333333333333)"><circle cx="3" cy="3" r="3"/></g>
<g  transform="translate(440,400) scale(3.3333333333333)"><circle cx="3" cy="3" r="3"/></g>
<g  transform="translate(480,400) scale(3.3333333333333)"><circle cx="3" cy="3" r="3"/></g>
<g  transform="translate(560,400) scale(3.3333333333333)"><circle cx="3" cy="3" r="3"/></g>
<g  transform="translate(580,400) scale(3.3333333333333)"><circle cx="3" cy="3" r="3"/></g>
<g  transform="translate(640,400) scale(3.3333333333333)"><circle cx="3" cy="3" r="3"/></g>
<g  transform="translate(660,400) scale(3.3333333333333)"><circle cx="3" cy="3" r="3"/></g>
<g  transform="translate(40,420) scale(3.3333333333333)"><circle cx="3" cy="3" r="3"/></g>
<g  transform="translate(80,420) scale(3.3333333333333)"><circle cx="3" cy="3" r="3"/></g>
<g  transform="translate(120,420) scale(3.3333333333333)"><circle cx="3" cy="3" r="3"/></g>
<g  transform="translate(140,420) scale(3.3333333333333)"><circle cx="3" cy="3" r="3"/></g>
<g  transform="translate(220,420) scale(3.3333333333333)"><circle cx="3" cy="3" r="3"/></g>
<g  transform="translate(280,420) scale(3.3333333333333)"><circle cx="3" cy="3" r="3"/></g>
<g  transform="translate(300,420) scale(3.3333333333333)"><circle cx="3" cy="3" r="3"/></g>
<g  transform="translate(340,420) scale(3.3333333333333)"><circle cx="3" cy="3" r="3"/></g>
<g  transform="translate(420,420) scale(3.3333333333333)"><circle cx="3" cy="3" r="3"/></g>
<g  transform="translate(460,420) scale(3.3333333333333)"><circle cx="3" cy="3" r="3"/></g>
<g  transform="translate(480,420) scale(3.3333333333333)"><circle cx="3" cy="3" r="3"/></g>
<g  transform="translate(500,420) scale(3.3333333333333)"><circle cx="3" cy="3" r="3"/></g>
<g  transform="translate(520,420) scale(3.3333333333333)"><circle cx="3" cy="3" r="3"/></g>
<g  transform="translate(580,420) scale(3.3333333333333)"><circle cx="3" cy="3" r="3"/></g>
<g  transform="translate(620,420) scale(3.3333333333333)"><circle cx="3" cy="3" r="3"/></g>
<g  transform="translate(640,420) scale(3.3333333333333)"><circle cx="3" cy="3" r="3"/></g>
<g  transform="translate(660,420) scale(3.3333333333333)"><circle cx="3" cy="3" r="3"/></g>
<g  transform="translate(80,440) scale(3.3333333333333)"><circle cx="3" cy="3" r="3"/></g>
<g  transform="translate(140,440) scale(3.3333333333333)"><circle cx="3" cy="3" r="3"/></g>
<g  transform="translate(160,440) scale(3.3333333333333)"><circle cx="3" cy="3" r="3"/></g>
<g  transform="translate(240,440) scale(3.3333333333333)"><circle cx="3" cy="3" r="3"/></g>
<g  transform="translate(280,440) scale(3.3333333333333)"><circle cx="3" cy="3" r="3"/></g>
<g  transform="translate(320,440) scale(3.3333333333333)"><circle cx="3" cy="3" r="3"/></g>
<g  transform="translate(440,440) scale(3.3333333333333)"><circle cx="3" cy="3" r="3"/></g>
<g  transform="translate(480,440) scale(3.3333333333333)"><circle cx="3" cy="3" r="3"/></g>
<g  transform="translate(520,440) scale(3.3333333333333)"><circle cx="3" cy="3" r="3"/></g>
<g  transform="translate(540,440) scale(3.3333333333333)"><circle cx="3" cy="3" r="3"/></g>
<g  transform="translate(640,440) scale(3.3333333333333)"><circle cx="3" cy="3" r="3"/></g>
<g  transform="translate(660,440) scale(3.3333333333333)"><circle cx="3" cy="3" r="3"/></g>
<g  transform="translate(40,460) scale(3.3333333333333)"><circle cx="3" cy="3" r="3"/></g>
<g  transform="translate(60,460) scale(3.3333333333333)"><circle cx="3" cy="3" r="3"/></g>
<g  transform="translate(80,460) scale(3.3333333333333)"><circle cx="3" cy="3" r="3"/></g>
<g  transform="translate(100,460) scale(3.3333333333333)"><circle cx="3" cy="3" r="3"/></g>
<g  transform="translate(180,460) scale(3.3333333333333)"><circle cx="3" cy="3" r="3"/></g>
<g  transform="translate(240,460) scale(3.3333333333333)"><circle cx="3" cy="3" r="3"/></g>
<g  transform="translate(340,460) scale(3.3333333333333)"><circle cx="3" cy="3" r="3"/></g>
<g  transform="translate(400,460) scale(3.3333333333333)"><circle cx="3" cy="3" r="3"/></g>
<g  transform="translate(440,460) scale(3.3333333333333)"><circle cx="3" cy="3" r="3"/></g>
<g  transform="translate(460,460) scale(3.3333333333333)"><circle cx="3" cy="3" r="3"/></g>
<g  transform="translate(480,460) scale(3.3333333333333)"><circle cx="3" cy="3" r="3"/></g>
<g  transform="translate(540,460) scale(3.3333333333333)"><circle cx="3" cy="3" r="3"/></g>
<g  transform="translate(640,460) scale(3.3333333333333)"><circle cx="3" cy="3" r="3"/></g>
<g  transform="translate(660,460) scale(3.3333333333333)"><circle cx="3" cy="3" r="3"/></g>
<g  transform="translate(680,460) scale(3.3333333333333)"><circle cx="3" cy="3" r="3"/></g>
<g  transform="translate(40,480) scale(3.3333333333333)"><circle cx="3" cy="3" r="3"/></g>
<g  transform="translate(120,480) scale(3.3333333333333)"><circle cx="3" cy="3" r="3"/></g>
<g  transform="translate(140,480) scale(3.3333333333333)"><circle cx="3" cy="3" r="3"/></g>
<g  transform="translate(160,480) scale(3.3333333333333)"><circle cx="3" cy="3" r="3"/></g>
<g  transform="translate(180,480) scale(3.3333333333333)"><circle cx="3" cy="3" r="3"/></g>
<g  transform="translate(240,480) scale(3.3333333333333)"><circle cx="3" cy="3" r="3"/></g>
<g  transform="translate(260,480) scale(3.3333333333333)"><circle cx="3" cy="3" r="3"/></g>
<g  transform="translate(280,480) scale(3.3333333333333)"><circle cx="3" cy="3" r="3"/></g>
<g  transform="translate(360,480) scale(3.3333333333333)"><circle cx="3" cy="3" r="3"/></g>
<g  transform="translate(380,480) scale(3.3333333333333)"><circle cx="3" cy="3" r="3"/></g>
<g  transform="translate(400,480) scale(3.3333333333333)"><circle cx="3" cy="3" r="3"/></g>
<g  transform="translate(440,480) scale(3.3333333333333)"><circle cx="3" cy="3" r="3"/></g>
<g  transform="translate(480,480) scale(3.3333333333333)"><circle cx="3" cy="3" r="3"/></g>
<g  transform="translate(580,480) scale(3.3333333333333)"><circle cx="3" cy="3" r="3"/></g>
<g  transform="translate(620,480) scale(3.3333333333333)"><circle cx="3" cy="3" r="3"/></g>
<g  transform="translate(640,480) scale(3.3333333333333)"><circle cx="3" cy="3" r="3"/></g>
<g  transform="translate(40,500) scale(3.3333333333333)"><circle cx="3" cy="3" r="3"/></g>
<g  transform="translate(80,500) scale(3.3333333333333)"><circle cx="3" cy="3" r="3"/></g>
<g  transform="translate(120,500) scale(3.3333333333333)"><circle cx="3" cy="3" r="3"/></g>
<g  transform="translate(220,500) scale(3.3333333333333)"><circle cx="3" cy="3" r="3"/></g>
<g  transform="translate(240,500) scale(3.3333333333333)"><circle cx="3" cy="3" r="3"/></g>
<g  transform="translate(260,500) scale(3.3333333333333)"><circle cx="3" cy="3" r="3"/></g>
<g  transform="translate(320,500) scale(3.3333333333333)"><circle cx="3" cy="3" r="3"/></g>
<g  transform="translate(340,500) scale(3.3333333333333)"><circle cx="3" cy="3" r="3"/></g>
<g  transform="translate(400,500) scale(3.3333333333333)"><circle cx="3" cy="3" r="3"/></g>
<g  transform="translate(420,500) scale(3.3333333333333)"><circle cx="3" cy="3" r="3"/></g>
<g  transform="translate(440,500) scale(3.3333333333333)"><circle cx="3" cy="3" r="3"/></g>
<g  transform="translate(480,500) scale(3.3333333333333)"><circle cx="3" cy="3" r="3"/></g>
<g  transform="translate(500,500) scale(3.3333333333333)"><circle cx="3" cy="3" r="3"/></g>
<g  transform="translate(600,500) scale(3.3333333333333)"><circle cx="3" cy="3" r="3"/></g>
<g  transform="translate(620,500) scale(3.3333333333333)"><circle cx="3" cy="3" r="3"/></g>
<g  transform="translate(640,500) scale(3.3333333333333)"><circle cx="3" cy="3" r="3"/></g>
<g  transform="translate(40,520) scale(3.3333333333333)"><circle cx="3" cy="3" r="3"/></g>
<g  transform="translate(100,520) scale(3.3333333333333)"><circle cx="3" cy="3" r="3"/></g>
<g  transform="translate(120,520) scale(3.3333333333333)"><circle cx="3" cy="3" r="3"/></g>
<g  transform="translate(140,520) scale(3.3333333333333)"><circle cx="3" cy="3" r="3"/></g>
<g  transform="translate(160,520) scale(3.3333333333333)"><circle cx="3" cy="3" r="3"/></g>
<g  transform="translate(180,520) scale(3.3333333333333)"><circle cx="3" cy="3" r="3"/></g>
<g  transform="translate(200,520) scale(3.3333333333333)"><circle cx="3" cy="3" r="3"/></g>
<g  transform="translate(260,520) scale(3.3333333333333)"><circle cx="3" cy="3" r="3"/></g>
<g  transform="translate(340,520) scale(3.3333333333333)"><circle cx="3" cy="3" r="3"/></g>
<g  transform="translate(380,520) scale(3.3333333333333)"><circle cx="3" cy="3" r="3"/></g>
<g  transform="translate(440,520) scale(3.3333333333333)"><circle cx="3" cy="3" r="3"/></g>
<g  transform="translate(520,520) scale(3.3333333333333)"><circle cx="3" cy="3" r="3"/></g>
<g  transform="translate(540,520) scale(3.3333333333333)"><circle cx="3" cy="3" r="3"/></g>
<g  transform="translate(560,520) scale(3.3333333333333)"><circle cx="3" cy="3" r="3"/></g>
<g  transform="translate(580,520) scale(3.3333333333333)"><circle cx="3" cy="3" r="3"/></g>
<g  transform="translate(600,520) scale(3.3333333333333)"><circle cx="3" cy="3" r="3"/></g>
<g  transform="translate(620,520) scale(3.3333333333333)"><circle cx="3" cy="3" r="3"/></g>
<g  transform="translate(640,520) scale(3.3333333333333)"><circle cx="3" cy="3" r="3"/></g>
<g  transform="translate(680,520) scale(3.3333333333333)"><circle cx="3" cy="3" r="3"/></g>
<g  transform="translate(200,540) scale(3.3333333333333)"><circle cx="3" cy="3" r="3"/></g>
<g  transform="translate(220,540) scale(3.3333333333333)"><circle cx="3" cy="3" r="3"/></g>
<g  transform="translate(280,540) scale(3.3333333333333)"><circle cx="3" cy="3" r="3"/></g>
<g  transform="translate(300,540) scale(3.3333333333333)"><circle cx="3" cy="3" r="3"/></g>
<g  transform="translate(320,540) scale(3.3333333333333)"><circle cx="3" cy="3" r="3"/></g>
<g  transform="translate(340,540) scale(3.3333333333333)"><circle cx="3" cy="3" r="3"/></g>
<g  transform="translate(380,540) scale(3.3333333333333)"><circle cx="3" cy="3" r="3"/></g>
<g  transform="translate(420,540) scale(3.3333333333333)"><circle cx="3" cy="3" r="3"/></g>
<g  transform="translate(440,540) scale(3.3333333333333)"><circle cx="3" cy="3" r="3"/></g>
<g  transform="translate(500,540) scale(3.3333333333333)"><circle cx="3" cy="3" r="3"/></g>
<g  transform="translate(520,540) scale(3.3333333333333)"><circle cx="3" cy="3" r="3"/></g>
<g  transform="translate(600,540) scale(3.3333333333333)"><circle cx="3" cy="3" r="3"/></g>
<g  transform="translate(640,540) scale(3.3333333333333)"><circle cx="3" cy="3" r="3"/></g>
<g  transform="translate(660,540) scale(3.3333333333333)"><circle cx="3" cy="3" r="3"/></g>
<g  transform="translate(200,560) scale(3.3333333333333)"><circle cx="3" cy="3" r="3"/></g>
<g  transform="translate(220,560) scale(3.3333333333333)"><circle cx="3" cy="3" r="3"/></g>
<g  transform="translate(300,560) scale(3.3333333333333)"><circle cx="3" cy="3" r="3"/></g>
<g  transform="translate(320,560) scale(3.3333333333333)"><circle cx="3" cy="3" r="3"/></g>
<g  transform="translate(340,560) scale(3.3333333333333)"><circle cx="3" cy="3" r="3"/></g>
<g  transform="translate(360,560) scale(3.3333333333333)"><circle cx="3" cy="3" r="3"/></g>
<g  transform="translate(380,560) scale(3.3333333333333)"><circle cx="3" cy="3" r="3"/></g>
<g  transform="translate(400,560) scale(3.3333333333333)"><circle cx="3" cy="3" r="3"/></g>
<g  transform="translate(460,560) scale(3.3333333333333)"><circle cx="3" cy="3" r="3"/></g>
<g  transform="translate(500,560) scale(3.3333333333333)"><circle cx="3" cy="3" r="3"/></g>
<g  transform="translate(520,560) scale(3.3333333333333)"><circle cx="3" cy="3" r="3"/></g>
<g  transform="translate(560,560) scale(3.3333333333333)"><circle cx="3" cy="3" r="3"/></g>
<g  transform="translate(600,560) scale(3.3333333333333)"><circle cx="3" cy="3" r="3"/></g>
<g  transform="translate(640,560) scale(3.3333333333333)"><circle cx="3" cy="3" r="3"/></g>
<g  transform="translate(660,560) scale(3.3333333333333)"><circle cx="3" cy="3" r="3"/></g>
<g  transform="translate(220,580) scale(3.3333333333333)"><circle cx="3" cy="3" r="3"/></g>
<g  transform="translate(240,580) scale(3.3333333333333)"><circle cx="3" cy="3" r="3"/></g>
<g  transform="translate(280,580) scale(3.3333333333333)"><circle cx="3" cy="3" r="3"/></g>
<g  transform="translate(300,580) scale(3.3333333333333)"><circle cx="3" cy="3" r="3"/></g>
<g  transform="translate(340,580) scale(3.3333333333333)"><circle cx="3" cy="3" r="3"/></g>
<g  transform="translate(400,580) scale(3.3333333333333)"><circle cx="3" cy="3" r="3"/></g>
<g  transform="translate(520,580) scale(3.3333333333333)"><circle cx="3" cy="3" r="3"/></g>
<g  transform="translate(600,580) scale(3.3333333333333)"><circle cx="3" cy="3" r="3"/></g>
<g  transform="translate(620,580) scale(3.3333333333333)"><circle cx="3" cy="3" r="3"/></g>
<g  transform="translate(640,580) scale(3.3333333333333)"><circle cx="3" cy="3" r="3"/></g>
<g  transform="translate(660,580) scale(3.3333333333333)"><circle cx="3" cy="3" r="3"/></g>
<g  transform="translate(680,580) scale(3.3333333333333)"><circle cx="3" cy="3" r="3"/></g>
<g  transform="translate(200,600) scale(3.3333333333333)"><circle cx="3" cy="3" r="3"/></g>
<g  transform="translate(280,600) scale(3.3333333333333)"><circle cx="3" cy="3" r="3"/></g>
<g  transform="translate(320,600) scale(3.3333333333333)"><circle cx="3" cy="3" r="3"/></g>
<g  transform="translate(360,600) scale(3.3333333333333)"><circle cx="3" cy="3" r="3"/></g>
<g  transform="translate(380,600) scale(3.3333333333333)"><circle cx="3" cy="3" r="3"/></g>
<g  transform="translate(400,600) scale(3.3333333333333)"><circle cx="3" cy="3" r="3"/></g>
<g  transform="translate(440,600) scale(3.3333333333333)"><circle cx="3" cy="3" r="3"/></g>
<g  transform="translate(460,600) scale(3.3333333333333)"><circle cx="3" cy="3" r="3"/></g>
<g  transform="translate(480,600) scale(3.3333333333333)"><circle cx="3" cy="3" r="3"/></g>
<g  transform="translate(520,600) scale(3.3333333333333)"><circle cx="3" cy="3" r="3"/></g>
<g  transform="translate(540,600) scale(3.3333333333333)"><circle cx="3" cy="3" r="3"/></g>
<g  transform="translate(560,600) scale(3.3333333333333)"><circle cx="3" cy="3" r="3"/></g>
<g  transform="translate(580,600) scale(3.3333333333333)"><circle cx="3" cy="3" r="3"/></g>
<g  transform="translate(600,600) scale(3.3333333333333)"><circle cx="3" cy="3" r="3"/></g>
<g  transform="translate(620,600) scale(3.3333333333333)"><circle cx="3" cy="3" r="3"/></g>
<g  transform="translate(640,600) scale(3.3333333333333)"><circle cx="3" cy="3" r="3"/></g>
<g  transform="translate(680,600) scale(3.3333333333333)"><circle cx="3" cy="3" r="3"/></g>
<g  transform="translate(200,620) scale(3.3333333333333)"><circle cx="3" cy="3" r="3"/></g>
<g  transform="translate(400,620) scale(3.3333333333333)"><circle cx="3" cy="3" r="3"/></g>
<g  transform="translate(420,620) scale(3.3333333333333)"><circle cx="3" cy="3" r="3"/></g>
<g  transform="translate(460,620) scale(3.3333333333333)"><circle cx="3" cy="3" r="3"/></g>
<g  transform="translate(480,620) scale(3.3333333333333)"><circle cx="3" cy="3" r="3"/></g>
<g  transform="translate(500,620) scale(3.3333333333333)"><circle cx="3" cy="3" r="3"/></g>
<g  transform="translate(520,620) scale(3.3333333333333)"><circle cx="3" cy="3" r="3"/></g>
<g  transform="translate(540,620) scale(3.3333333333333)"><circle cx="3" cy="3" r="3"/></g>
<g  transform="translate(660,620) scale(3.3333333333333)"><circle cx="3" cy="3" r="3"/></g>
<g  transform="translate(200,640) scale(3.3333333333333)"><circle cx="3" cy="3" r="3"/></g>
<g  transform="translate(240,640) scale(3.3333333333333)"><circle cx="3" cy="3" r="3"/></g>
<g  transform="translate(260,640) scale(3.3333333333333)"><circle cx="3" cy="3" r="3"/></g>
<g  transform="translate(280,640) scale(3.3333333333333)"><circle cx="3" cy="3" r="3"/></g>
<g  transform="translate(340,640) scale(3.3333333333333)"><circle cx="3" cy="3" r="3"/></g>
<g  transform="translate(360,640) scale(3.3333333333333)"><circle cx="3" cy="3" r="3"/></g>
<g  transform="translate(380,640) scale(3.3333333333333)"><circle cx="3" cy="3" r="3"/></g>
<g  transform="translate(400,640) scale(3.3333333333333)"><circle cx="3" cy="3" r="3"/></g>
<g  transform="translate(540,640) scale(3.3333333333333)"><circle cx="3" cy="3" r="3"/></g>
<g  transform="translate(620,640) scale(3.3333333333333)"><circle cx="3" cy="3" r="3"/></g>
<g  transform="translate(200,660) scale(3.3333333333333)"><circle cx="3" cy="3" r="3"/></g>
<g  transform="translate(220,660) scale(3.3333333333333)"><circle cx="3" cy="3" r="3"/></g>
<g  transform="translate(240,660) scale(3.3333333333333)"><circle cx="3" cy="3" r="3"/></g>
<g  transform="translate(260,660) scale(3.3333333333333)"><circle cx="3" cy="3" r="3"/></g>
<g  transform="translate(320,660) scale(3.3333333333333)"><circle cx="3" cy="3" r="3"/></g>
<g  transform="translate(360,660) scale(3.3333333333333)"><circle cx="3" cy="3" r="3"/></g>
<g  transform="translate(460,660) scale(3.3333333333333)"><circle cx="3" cy="3" r="3"/></g>
<g  transform="translate(540,660) scale(3.3333333333333)"><circle cx="3" cy="3" r="3"/></g>
<g  transform="translate(560,660) scale(3.3333333333333)"><circle cx="3" cy="3" r="3"/></g>
<g  transform="translate(580,660) scale(3.3333333333333)"><circle cx="3" cy="3" r="3"/></g>
<g  transform="translate(640,660) scale(3.3333333333333)"><circle cx="3" cy="3" r="3"/></g>
<g  transform="translate(200,680) scale(3.3333333333333)"><circle cx="3" cy="3" r="3"/></g>
<g  transform="translate(260,680) scale(3.3333333333333)"><circle cx="3" cy="3" r="3"/></g>
<g  transform="translate(360,680) scale(3.3333333333333)"><circle cx="3" cy="3" r="3"/></g>
<g  transform="translate(380,680) scale(3.3333333333333)"><circle cx="3" cy="3" r="3"/></g>
<g  transform="translate(400,680) scale(3.3333333333333)"><circle cx="3" cy="3" r="3"/></g>
<g  transform="translate(420,680) scale(3.3333333333333)"><circle cx="3" cy="3" r="3"/></g>
<g  transform="translate(440,680) scale(3.3333333333333)"><circle cx="3" cy="3" r="3"/></g>
<g  transform="translate(520,680) scale(3.3333333333333)"><circle cx="3" cy="3" r="3"/></g>
<g  transform="translate(560,680) scale(3.3333333333333)"><circle cx="3" cy="3" r="3"/></g>
<g  transform="translate(620,680) scale(3.3333333333333)"><circle cx="3" cy="3" r="3"/></g>
<g  transform="translate(660,680) scale(3.3333333333333)"><circle cx="3" cy="3" r="3"/></g>
<g transform="translate(40,40)"><g transform="scale(10)"><path  d="M0,0v14h14V0H0z M12,12H2V2h10V12z"/></g></g>
<g  transform="translate(560,40)"><g transform="scale(10)"><path  d="M0,0v14h14V0H0z M12,12H2V2h10V12z"/></g></g>
<g  transform="translate(40,560)"><g transform="scale(10)"><path  d="M0,0v14h14V0H0z M12,12H2V2h10V12z"/></g></g>
<g transform="translate(80,80)"><g transform="scale(10)"><rect width="6" height="6" /></g></g>
<g transform="translate(600,80)"><g transform="scale(10)"><rect width="6" height="6" /></g></g>
<g transform="translate(80,600)"><g transform="scale(10)"><rect width="6" height="6" /></g></g>
</g></svg>