<?xml version="1.0" encoding="UTF-8"?><svg id="uuid-e75cc399-dfc1-4600-8cd7-615cef20c54c" xmlns="http://www.w3.org/2000/svg" viewBox="0 0 692 692"><path d="m692,692H0V0c230.67,0,461.33,0,692,0v692Zm-104.79-135.89h-34.79v29.28h-48.97v31.07h-91.18v28.73h91.02c0-10,0-19.44,0-28.89h48.98c0-10.65,0-20.86,0-31.06h34.79c0-10.16,0-19.72,0-29.29h24.18v-23.01h24.82v-52.77h26.63v-82.8h26.57v-156.34h-26.96v-51.65h-26.01v-41.85h-25.02v-18.7h-23.8v-32.95h-34.68v-23.68h-50.37v-26.89h-68.5v-23.42h-193.02v23.92h-70.07v27.09h-47.19v23.14h-24.11v33.18h-25.84v17.77h-24.86v42.56h-26.84v50.07H2.14v74.37h19.95v25.52H2.16v58.3h21.11v82.86h23.86v-20.56h25.54v21.74h-23.41v50.71h24.27v-33.28h25.1c0,11.31,0,22.37.01,33.45h-24.45v22.96h24.31v-23.11h25.74v24.31h-24.4v28.47h24.87v30.92h45.43v-30.69h-44.63v-29.71h45.41v-22.81h40.89v52.02h52.99v-28.34h44.83v28.13h58.75v-29.02h42.5v-21.85h65.07v51.31h26.67v-29.51h25.23v-23.5l-.06.08h24.65v-33.56h34.69v-38.78h23.91c0,15.51-.04,30.73.01,45.96.03,9.02.2,18.05.29,27.06h-24.15v23.07Zm-176.56,116.09v-26.14h-145.23v26.14h145.23Zm-240.74-55.21v28.48h93.99v-28.48h-93.99Z" fill="#fff"/><path d="m98.63,532.69v-33.44h-25.1v33.28h-24.27v-50.71h23.41v-21.74h-25.54v20.56h-23.86v-82.86H2.16v-58.3h19.93v-25.52H2.14v-74.37h19.82v-50.07h26.84v-42.56h24.86v-17.77h25.84v-33.18h24.11v-23.14h47.19v-27.09h70.07v-23.92h193.02v23.42h68.5v26.89h50.37v23.68h34.68v32.95h23.8v18.7h25.02v41.85h26.01v51.65h26.96v156.34h-26.57v82.8h-26.63v52.77c-8.62,0-16.72,0-24.83,0,0,0,.15.12.14.12-.11-9.02-.27-18.05-.3-27.07-.05-15.22-.01-30.45-.01-45.96h-23.91v38.78h-34.69v33.56c-8.55,0-16.6,0-24.66,0-.12-13-.23-26.01-.33-39.01-.03-4.1,0-8.2,0-12.68h-51.28v19.35h26.94v33.11c4.59,0,8.57.11,12.55-.03,4.07-.15,8.13-.54,12.19-.83v23.5h-25.23v29.51h-26.67v-51.31h-65.07v21.85h-42.5v29.02h-58.75v-28.13h-44.83v28.34h-52.99v-52.02h-40.89v22.81h-45.41v29.71h44.63v30.69h-45.43v-30.92h-24.87v-28.47h24.4v-24.31h-25.74l.13.14ZM369.43,96.43c-2.62-.25-5.24-.68-7.87-.72-8.05-.09-16.11-.03-24.2-.03v18.8h31.98c0-6.22,0-12.19-.02-18.18,6.41-.34,12.83-.69,19.39-1.04v-22.41h-19.28v23.58Zm-60.76,143.84h-44.64v24.9h-22.41v106.26h23.36v26.83h44.62v23.03h58.76v-23.83h43.6v-26.59h22.04v-106.07h-23.15v-25.7h-42.73v-25.27h-59.44v26.43Zm194.44,100.38v34.66h-26.65v22.39h49.71v-26.94h26.86v-30.12h-49.92Zm-310.13,159.25v-18.96h-67.58v51.58h21.51v-32.62h46.06Zm219.11-335.88v46.92h41.27v-46.92h-41.27Zm114.44,75.25v-25.81h-22.93v51.87h48.42v-26.06h-25.49Zm-356.25-74.09v-69.23h-24.11v69.23h24.11Zm93.79-17.18h-41.4v40.64h41.4v-40.64ZM48.05,240.37v44h50.67v-19.47h-25.06v-24.54h-25.61Zm51.01,73.92v56.31h25.19v-56.31h-25.19ZM475.69,113.72h26.55v-18.33h-52.76v34.26h26.21v-15.93ZM124.45,240.02v-50.29h-25.41v50.29h25.41Zm263.86,292.61v-33.32h-19.77v15.08h-32.04v18.24h51.82ZM212.69,94.93h52.97v-21.87h-52.97v21.87Zm97.82,52.86v41.36h26.77v-41.36h-26.77Zm301.61,136.23v46.46h23.85v-46.46h-23.85Zm-419.32,29.71v-48.34h-21.75v48.34h21.75Zm96.92,186.59v-40.98h-24.26v40.98h24.26Zm322.19-102.49h-23.74v40.37h23.74v-40.37Zm-457.31,22.59h38.57v-23.44h-38.57v23.44Zm256.69,39.18h23.17v-37.74h-23.17v37.74Zm-240.78-219.63h21.94v-26.33h-21.94v26.33Zm416.81-50.38v21.37h24.89v-21.37h-24.89ZM73.5,359.19v-18.16h-26.11v18.16h26.11Z"/><path d="m410.64,672.21h-145.23v-26.14h145.23v26.14Z"/><path d="m169.91,616.99h93.99v28.48h-93.99v-28.48Z"/><path d="m503.28,616.3v28.89h-91.02v-28.73h91.18l-.16-.16Z"/><path d="m503.44,616.46v-31.07h48.97l-.15-.15v31.06c-16.49,0-32.74,0-48.99,0,0,0,.16.16.16.16Z"/><path d="m552.42,585.39v-29.28h34.79l-.15-.16v29.29c-12.14,0-23.46,0-34.79,0,0,0,.15.15.15.15Z"/><path d="m98.5,532.55v23.11h-24.31v-22.96c8.05,0,16.25,0,24.44,0,0,0-.13-.15-.13-.15Z"/><path d="m587.21,556.11v-23.07c8.03,0,16.09,0,24.16,0,0,0-.15-.12-.14-.12,0,7.47,0,14.94,0,23.01-8.41,0-16.29,0-24.18,0,0,0,.16.17.16.17Z"/><path d="m308.67,240.28v-26.43h59.44v25.27h42.73v25.7h23.15v106.07h-22.04v26.59h-43.6v23.83h-58.76v-23.03h-44.62v-26.83h-23.36v-106.26h22.41v-24.9h44.64Z" fill="#fff"/><path d="m503.11,340.66h49.92v30.12h-26.86v26.94h-49.71v-22.39h26.65v-34.66Z" fill="#fff"/><path d="m192.97,499.91h-46.06v32.62h-21.51v-51.58h67.58v18.96Z" fill="#fff"/><path d="m412.08,164.03h41.27v46.92h-41.27v-46.92Z" fill="#fff"/><path d="m526.52,239.28h25.49v26.06h-48.42v-51.87h22.93v25.81Z" fill="#fff"/><path d="m527.86,532.28c-4.06.29-8.12.68-12.19.83-3.97.14-7.96.03-12.55.03v-33.11h-26.94v-19.35h51.28c0,4.48-.03,8.58,0,12.68.1,13.01.21,26.01.33,39.01,0,0,.07-.09.07-.09Z" fill="#fff"/><path d="m170.28,165.19h-24.11v-69.23h24.11v69.23Z" fill="#fff"/><path d="m264.06,148.01v40.64h-41.4v-40.64h41.4Z" fill="#fff"/><path d="m48.05,240.37h25.61v24.54h25.06v19.47h-50.67v-44Z" fill="#fff"/><path d="m99.06,314.29h25.19v56.31h-25.19v-56.31Z" fill="#fff"/><path d="m475.69,113.72v15.93h-26.21v-34.26h52.76v18.33h-26.55Z" fill="#fff"/><path d="m124.45,240.02h-25.41v-50.29h25.41v50.29Z" fill="#fff"/><path d="m388.32,532.63h-51.82v-18.24h32.04v-15.08h19.77v33.32Z" fill="#fff"/><path d="m212.69,94.93v-21.87h52.97v21.87h-52.97Z" fill="#fff"/><path d="m310.51,147.79h26.77v41.36h-26.77v-41.36Z" fill="#fff"/><path d="m612.11,284.03h23.85v46.46h-23.85v-46.46Z" fill="#fff"/><path d="m192.79,313.73h-21.75v-48.34h21.75v48.34Z" fill="#fff"/><path d="m289.71,500.32h-24.26v-40.98h24.26v40.98Z" fill="#fff"/><path d="m611.9,397.83v40.37h-23.74v-40.37h23.74Z" fill="#fff"/><path d="m154.59,420.42v-23.44h38.57v23.44h-38.57Z" fill="#fff"/><path d="m411.27,459.61v-37.74h23.17v37.74h-23.17Z" fill="#fff"/><path d="m170.49,239.98v-26.33h21.94v26.33h-21.94Z" fill="#fff"/><path d="m369.34,96.32v18.16h-31.98v-18.8c8.09,0,16.15-.06,24.2.03,2.63.03,5.25.47,7.87.72l-.09-.11Z" fill="#fff"/><path d="m587.31,189.59h24.89v21.37h-24.89v-21.37Z" fill="#fff"/><path d="m73.5,359.19h-26.11v-18.16h26.11v18.16Z" fill="#fff"/><path d="m369.43,96.43v-23.58h19.28v22.41c-6.56.35-12.97.7-19.38,1.05,0,0,.1.12.1.12Z" fill="#fff"/></svg>