<svg fill="none" height="23" viewBox="0 0 24 23" width="24" xmlns="http://www.w3.org/2000/svg"><path d="m.809998 22.19h21v22.38h-21z" fill="#fff" stroke="#000" transform="matrix(0 -1 1 0 -21.380002 22.999998)"/><g fill="#000"><path d="m0 0h20v2.00043h-20z" transform="matrix(0 -1 -1 0 23.3149 21.69)"/><path d="m0 0h5.5v1.37529h-5.5z" transform="matrix(0 -1 -1 0 12.6876 21.315)"/><path d="m0 0h6.875v11.0024h-6.875z" transform="matrix(0 -1 -1 0 18.1888 15.815)"/><path d="m0 0h5.50118v1.375h-5.50118z" transform="matrix(-1 0 0 1 18.1888 15.815)"/><path d="m0 0h1.37529v1.375h-1.37529z" transform="matrix(-1 0 0 1 5.81116 13.065)"/><path d="m0 0h1.37529v1.375h-1.37529z" transform="matrix(-1 0 0 1 4.43585 11.69)"/><path d="m0 0h1.37529v1.375h-1.37529z" transform="matrix(-1 0 0 1 12.6876 3.44)"/><path d="m0 0h1.37529v4.125h-1.37529z" transform="matrix(-1 0 0 1 11.3124 4.815)"/><path d="m0 0h1.37529v2.75h-1.37529z" transform="matrix(-1 0 0 1 9.93707 6.19)"/><path d="m0 0h1.37529v1.375h-1.37529z" transform="matrix(-1 0 0 1 8.56177 7.565)"/><path d="m0 0h1.37529v1.375h-1.37529z" transform="matrix(-1 0 0 1 7.18646 8.94)"/><path d="m0 0h1.37529v2.75h-1.37529z" transform="matrix(-1 0 0 1 5.81116 10.315)"/><path d="m0 0h1.37529v5.5h-1.37529z" transform="matrix(-1 0 0 1 7.18646 10.315)"/><path d="m0 0h1.37529v1.375h-1.37529z" transform="matrix(-1 0 0 1 8.56177 15.815)"/><path d="m0 0h1.37529v2.75h-1.37529z" transform="matrix(-1 0 0 1 9.93707 15.815)"/><path d="m0 0h1.37529v4.125h-1.37529z" transform="matrix(-1 0 0 1 11.3124 15.815)"/><path d="m0 0h1.37529v1.375h-1.37529z" transform="matrix(-1 0 0 1 12.6876 19.94)"/><path d="m0 0h5.50118v1.375h-5.50118z" transform="matrix(-1 0 0 1 18.1888 7.565)"/><path d="m0 0h5.5v1.37529h-5.5z" transform="matrix(0 -1 -1 0 12.6876 8.94)"/></g></svg>