<svg fill="none" height="23" viewBox="0 0 24 23" width="24" xmlns="http://www.w3.org/2000/svg"><path d="m-.5-.5h21v22.375h-21z" fill="#fff" stroke="#000" transform="matrix(0 -1 -1 0 22.6875 21.6875)"/><g fill="#000"><path d="m.6875 21.6875h20v2h-20z" transform="matrix(0 -1 1 0 -21 22.375)"/><path d="m11.3125 21.3125h5.5v1.375h-5.5z" transform="matrix(0 -1 1 0 -10 32.625)"/><path d="m5.8125 15.8125h6.875v1.375h-6.875z" transform="matrix(0 -1 1 0 -10 21.625)"/><path d="m5.8125 15.8125h5.5v1.375h-5.5z"/><path d="m18.1875 13.0625h1.375v1.375h-1.375z"/><path d="m19.5625 11.6875h1.375v1.375h-1.375z"/><path d="m11.3125 3.4375h1.375v1.375h-1.375z"/><path d="m12.6875 4.8125h1.375v1.375h-1.375z"/><path d="m14.0625 6.1875h1.375v1.375h-1.375z"/><path d="m15.4375 7.5625h1.375v1.375h-1.375z"/><path d="m16.8125 8.9375h1.375v1.375h-1.375z"/><path d="m18.1875 10.3125h1.375v1.375h-1.375z"/><path d="m16.8125 14.4375h1.375v1.375h-1.375z"/><path d="m15.4375 15.8125h1.375v1.375h-1.375z"/><path d="m14.0625 17.1875h1.375v1.375h-1.375z"/><path d="m12.6875 18.5625h1.375v1.375h-1.375z"/><path d="m11.3125 19.9375h1.375v1.375h-1.375z"/><path d="m5.8125 7.5625h5.5v1.375h-5.5z"/><path d="m11.3125 8.9375h5.5v1.375h-5.5z" transform="matrix(0 -1 1 0 2.375 20.25)"/></g></svg>