<svg fill="none" height="23" viewBox="0 0 24 23" width="24" xmlns="http://www.w3.org/2000/svg"><path d="m-.5-.5h21v22.38h-21z" fill="#fff" stroke="#000" transform="matrix(0 -1 -1 0 22.69 21.69)"/><g fill="#000"><path d="m.685059 21.69h20v2.00043h-20z" transform="matrix(0 -1 1 0 -21.004941 22.375059)"/><path d="m11.3124 21.315h5.5v1.37529h-5.5z" transform="matrix(0 -1 1 0 -10.0026 32.6274)"/><path d="m5.81116 15.815h6.875v11.0024h-6.875z" transform="matrix(0 -1 1 0 -10.00384 21.62616)"/><path d="m5.81116 15.815h5.50118v1.375h-5.50118z"/><path d="m18.1888 13.065h1.37529v1.375h-1.37529z"/><path d="m19.5641 11.69h1.37529v1.375h-1.37529z"/><path d="m11.3124 3.44h1.37529v1.375h-1.37529z"/><path d="m12.6876 4.815h1.37529v4.125h-1.37529z"/><path d="m14.0629 6.19h1.37529v2.75h-1.37529z"/><path d="m15.4382 7.565h1.37529v1.375h-1.37529z"/><path d="m16.8135 8.94h1.37529v1.375h-1.37529z"/><path d="m18.1888 10.315h1.37529v2.75h-1.37529z"/><path d="m16.8135 10.315h1.37529v5.5h-1.37529z"/><path d="m15.4382 15.815h1.37529v1.375h-1.37529z"/><path d="m14.0629 15.815h1.37529v2.75h-1.37529z"/><path d="m12.6876 15.815h1.37529v4.125h-1.37529z"/><path d="m11.3124 19.94h1.37529v1.375h-1.37529z"/><path d="m5.81116 7.565h5.50118v1.375h-5.50118z"/><path d="m11.3124 8.94h5.5v1.37529h-5.5z" transform="matrix(0 -1 1 0 2.3724 20.2524)"/></g></svg>