<svg fill="none" height="23" viewBox="0 0 24 23" width="24" xmlns="http://www.w3.org/2000/svg"><path d="m.8125 22.1875h21v22.375h-21z" fill="#fff" stroke="#000" transform="matrix(0 -1 1 0 -21.375 23)"/><g fill="#000"><path d="m0 0h20v2h-20z" transform="matrix(0 -1 -1 0 23.3125 21.6875)"/><path d="m0 0h5.5v1.375h-5.5z" transform="matrix(0 -1 -1 0 12.6875 21.3125)"/><path d="m0 0h6.875v1.375h-6.875z" transform="matrix(0 -1 -1 0 18.1875 15.8125)"/><path d="m0 0h5.5v1.375h-5.5z" transform="matrix(-1 0 0 1 18.1875 15.8125)"/><path d="m0 0h1.375v1.375h-1.375z" transform="matrix(-1 0 0 1 5.8125 13.0625)"/><path d="m0 0h1.375v1.375h-1.375z" transform="matrix(-1 0 0 1 4.4375 11.6875)"/><path d="m0 0h1.375v1.375h-1.375z" transform="matrix(-1 0 0 1 12.6875 3.4375)"/><path d="m0 0h1.375v1.375h-1.375z" transform="matrix(-1 0 0 1 11.3125 4.8125)"/><path d="m0 0h1.375v1.375h-1.375z" transform="matrix(-1 0 0 1 9.9375 6.1875)"/><path d="m0 0h1.375v1.375h-1.375z" transform="matrix(-1 0 0 1 8.5625 7.5625)"/><path d="m0 0h1.375v1.375h-1.375z" transform="matrix(-1 0 0 1 7.1875 8.9375)"/><path d="m0 0h1.375v1.375h-1.375z" transform="matrix(-1 0 0 1 5.8125 10.3125)"/><path d="m0 0h1.375v1.375h-1.375z" transform="matrix(-1 0 0 1 7.1875 14.4375)"/><path d="m0 0h1.375v1.375h-1.375z" transform="matrix(-1 0 0 1 8.5625 15.8125)"/><path d="m0 0h1.375v1.375h-1.375z" transform="matrix(-1 0 0 1 9.9375 17.1875)"/><path d="m0 0h1.375v1.375h-1.375z" transform="matrix(-1 0 0 1 11.3125 18.5625)"/><path d="m0 0h1.375v1.375h-1.375z" transform="matrix(-1 0 0 1 12.6875 19.9375)"/><path d="m0 0h5.5v1.375h-5.5z" transform="matrix(-1 0 0 1 18.1875 7.5625)"/><path d="m0 0h5.5v1.375h-5.5z" transform="matrix(0 -1 -1 0 12.6875 8.9375)"/></g></svg>